<svg version="1.1" id="Layer_1" xmlns="http://www.w3.org/2000/svg" xmlns:xlink="http://www.w3.org/1999/xlink" x="0px" y="0px"
	 width="100%" viewBox="0 0 282 198" enable-background="new 0 0 282 198" xml:space="preserve">
<path fill="#020202" opacity="1.000000" stroke="none" 
	d="
M181.000000,199.000000 
	C120.666672,199.000000 60.833347,199.000000 1.000016,199.000000 
	C1.000011,133.000015 1.000011,67.000031 1.000005,1.000034 
	C94.999969,1.000023 188.999939,1.000023 282.999939,1.000011 
	C282.999939,66.999962 282.999939,132.999924 282.999969,198.999939 
	C249.166672,199.000000 215.333328,199.000000 181.000000,199.000000 
M222.773987,181.205261 
	C219.741409,180.219711 216.223846,179.916580 215.290726,183.381027 
	C214.489441,186.356033 215.041656,190.063568 216.179214,192.986435 
	C216.559998,193.964767 220.593033,193.521698 223.806915,193.595184 
	C224.627304,192.999527 226.125366,192.438797 226.158173,191.802551 
	C226.372360,187.647308 226.309677,183.475098 226.247055,179.309784 
	C226.225906,177.903030 225.941986,176.500229 225.778168,175.095612 
	C225.454605,175.153412 225.131058,175.211197 224.807495,175.268982 
	C224.222504,177.451828 223.637512,179.634659 222.773987,181.205261 
M67.672340,193.791626 
	C73.956680,189.522171 74.517174,182.922974 68.559753,177.362000 
	C65.213318,176.906952 61.866875,176.451904 58.307964,175.967957 
	C58.307964,182.584305 58.307964,188.382935 58.307964,194.587479 
	C61.461357,194.315750 64.221649,194.077896 67.672340,193.791626 
M201.230103,181.867950 
	C196.396774,188.391418 198.685623,193.883560 207.382904,194.916779 
	C208.573654,194.111664 210.023224,193.521301 210.904465,192.459351 
	C213.145584,189.758713 212.739578,184.102905 209.967728,181.651276 
	C207.505081,179.473160 204.638260,178.435104 201.230103,181.867950 
M123.258186,181.979248 
	C120.305405,184.789825 120.020683,188.472458 122.042274,191.375671 
	C123.276627,193.148346 126.581085,194.363281 128.908829,194.292160 
	C132.794647,194.173416 133.693802,190.735397 133.514984,187.421951 
	C133.403931,185.363831 133.844757,182.327606 129.987595,182.227493 
	C128.249908,178.506393 126.193344,179.167969 123.258186,181.979248 
M271.705170,156.073242 
	C273.296570,154.587296 276.058228,153.231491 276.240875,151.588882 
	C276.647583,147.931412 276.399261,143.910080 275.200592,140.459961 
	C274.290588,137.840744 271.582275,135.690231 267.163666,137.009003 
	C259.392517,136.874786 254.666168,142.003098 255.909073,149.220734 
	C256.842163,154.639328 261.986938,158.540771 266.838531,157.099335 
	C268.229797,156.849182 269.621063,156.599014 271.705170,156.073242 
M194.670471,192.757889 
	C195.129929,191.195496 196.311966,189.398132 195.896423,188.120285 
	C195.065628,185.565430 193.907211,182.121582 191.888031,181.179398 
	C188.770554,179.724731 184.950653,180.325287 183.386475,185.539474 
	C182.295731,189.026443 182.526474,192.692642 186.028519,194.074417 
	C188.231003,194.943466 191.324020,193.555496 194.670471,192.757889 
M227.148026,156.053757 
	C222.909393,156.465668 220.313400,155.257690 221.669220,149.667648 
	C219.866531,150.522522 217.879562,151.391983 217.873367,152.275314 
	C217.862625,153.811356 218.735977,156.311218 219.842850,156.703918 
	C222.375534,157.602417 225.272919,157.472870 228.722488,157.796127 
	C231.947296,156.757095 234.333862,155.093674 234.328323,151.209671 
	C234.322693,147.268219 231.436401,146.287750 228.557602,145.467209 
	C224.634171,144.348938 221.034927,143.121048 221.860931,137.665817 
	C217.177216,140.802200 217.297028,145.144333 221.759460,147.403488 
	C223.654053,148.362625 225.842682,148.723938 227.798248,149.583221 
	C231.799637,151.341461 231.829636,153.268631 227.148026,156.053757 
M140.210587,136.787476 
	C137.796204,136.899002 135.381805,137.010529 132.967422,137.122055 
	C137.225723,140.780609 137.307159,153.265411 133.082657,157.324356 
	C136.651978,157.324356 140.087021,157.324356 144.185135,157.324356 
	C139.776581,154.380569 138.927872,145.025574 142.724792,139.661621 
	C147.242172,136.909409 145.228348,142.090698 147.870499,144.033600 
	C148.666199,141.697968 149.265289,139.939453 149.864395,138.180923 
	C148.044983,137.633667 146.251907,136.804443 144.397537,136.631180 
	C142.992798,136.499893 141.509888,137.205124 140.210587,136.787476 
M91.709236,139.534653 
	C93.974731,139.820984 96.940788,139.315933 98.353020,140.566116 
	C100.920662,142.839157 99.014755,154.699875 96.049820,157.279236 
	C99.838318,157.279236 103.378723,157.279236 106.001205,157.279236 
	C105.223679,154.906616 104.344467,152.989151 104.008835,150.980835 
	C103.683624,149.034821 104.374657,146.851456 103.801353,145.029785 
	C102.873337,142.081024 102.000252,138.278946 99.786781,136.772308 
	C96.689743,134.664230 92.730034,135.702789 89.303864,138.770981 
	C88.150551,135.375885 86.640213,135.261993 81.846115,138.208633 
	C86.288773,140.817200 86.305191,153.698776 81.581749,157.176941 
	C85.398415,157.176941 88.926819,157.176941 93.452255,157.176941 
	C88.376953,154.313354 87.499336,144.464523 91.709236,139.534653 
M61.276627,136.911774 
	C58.840416,136.911774 56.404202,136.911774 53.967991,136.911774 
	C58.417046,140.939133 58.487839,153.157715 54.069271,157.284882 
	C57.682262,157.284882 61.220341,157.284882 64.259132,157.284882 
	C63.211758,155.445801 61.642540,153.914078 61.560410,152.306396 
	C61.351772,148.222351 61.808998,144.104294 62.722237,139.569870 
	C65.765152,139.131653 70.116554,136.819504 70.906784,141.466339 
	C71.796890,146.700439 74.095047,152.813782 67.944870,157.376953 
	C71.985390,157.376953 75.480759,157.376953 78.005409,157.376953 
	C77.281013,154.877136 76.391144,152.648544 76.037682,150.337891 
	C75.716057,148.235413 76.042816,146.041534 75.969269,143.891861 
	C75.729156,136.873444 70.688866,133.952789 64.313507,137.025284 
	C63.368202,137.480865 62.203690,137.481567 61.276627,136.911774 
M194.039093,78.551712 
	C199.237320,64.277321 198.788025,50.104542 192.390732,36.403641 
	C181.183167,12.400729 155.045792,-0.474404 130.017303,5.352941 
	C103.046875,11.632425 85.936356,36.040756 86.634712,60.792725 
	C87.460655,90.066429 111.782532,114.733315 141.017197,114.928505 
	C164.656082,115.086319 184.397430,101.772675 194.039093,78.551712 
M191.711090,157.465546 
	C191.605240,156.919418 191.658493,156.006607 191.369995,155.881409 
	C185.865158,153.492828 183.992920,148.235687 180.898621,143.777664 
	C188.444046,140.044632 190.239105,134.339691 185.533508,130.543335 
	C182.127213,127.795212 167.468918,127.040558 164.230545,128.881912 
	C165.244598,130.830505 167.297958,132.893280 167.053268,134.632812 
	C166.009552,142.052841 170.761490,150.514099 163.463501,157.289917 
	C167.550125,157.289917 171.753036,157.289917 175.955948,157.289917 
	C169.487579,154.436127 172.771652,149.212540 172.912216,144.525085 
	C175.136765,145.670074 177.021423,147.142731 178.313660,149.022614 
	C181.457474,153.596069 184.164566,158.591583 191.711090,157.465546 
M35.528080,138.473618 
	C31.549931,129.206390 16.195509,124.318031 6.957819,129.377762 
	C12.447260,132.438507 12.582664,151.707703 6.674444,157.629684 
	C11.363642,157.629684 15.595994,157.717712 19.823467,157.611511 
	C28.857689,157.384537 38.106342,151.853790 35.528080,138.473618 
M213.407654,153.866669 
	C212.892227,152.075195 212.751633,151.939651 211.204483,153.544449 
	C208.563843,156.283432 205.229568,156.691086 202.679901,154.589798 
	C200.667603,152.931351 199.930420,149.725723 198.170853,146.326065 
	C202.908188,146.326065 205.892075,146.375137 208.873749,146.314789 
	C213.586441,146.219421 215.037033,144.076050 212.478760,140.203262 
	C211.260406,138.358871 208.816483,136.738861 206.643326,136.228729 
	C201.687500,135.065445 197.146301,137.768402 195.292160,142.199081 
	C193.031433,147.601318 194.528214,153.434464 198.944092,156.431213 
	C203.070343,159.231415 208.478195,158.489136 213.407654,153.866669 
M116.513817,136.600693 
	C109.759926,140.646606 107.716003,147.385437 111.426506,153.373718 
	C114.280884,157.980331 119.788544,159.358780 124.302010,156.596161 
	C115.287224,153.757126 114.992462,153.446213 115.088928,146.281311 
	C118.500504,146.281311 121.940895,146.234543 125.379471,146.293427 
	C129.464539,146.363358 129.754761,144.222946 128.475021,141.135757 
	C126.307556,135.907089 122.022652,135.540649 116.513817,136.600693 
M242.064163,156.263382 
	C245.308975,159.367493 248.353302,158.157196 251.006302,157.403961 
	C248.625458,155.456100 245.599792,154.209335 245.331360,152.523514 
	C244.616333,148.032928 245.088272,143.353317 245.088272,138.864609 
	C247.324020,138.408554 249.053040,138.055862 250.782059,137.703171 
	C250.745056,137.332336 250.708069,136.961517 250.671066,136.590683 
	C248.831589,136.406738 246.992096,136.222778 245.102173,136.033798 
	C244.954651,134.201263 244.818863,132.514709 244.629501,130.162521 
	C242.053192,133.039917 239.995468,135.338089 238.670181,136.818268 
	C239.512711,138.907166 240.554184,140.485153 240.746445,142.160583 
	C241.253571,146.579971 241.392151,151.041641 242.064163,156.263382 
M46.591553,135.930878 
	C44.411850,136.394073 42.232143,136.857269 39.584652,137.419876 
	C44.579594,141.132278 44.637077,152.783005 40.243618,157.308960 
	C43.856579,157.308960 47.407379,157.308960 50.089615,157.308960 
	C49.285290,155.059021 48.132088,153.114334 47.955505,151.084686 
	C47.527702,146.167465 47.554829,141.210663 46.591553,135.930878 
M172.705612,194.340088 
	C173.336380,191.990234 173.967133,189.640396 174.658951,187.063126 
	C176.653320,186.895142 178.941269,186.702438 181.229218,186.509735 
	C181.225159,186.036835 181.221100,185.563934 181.217041,185.091034 
	C178.909760,184.900238 176.602463,184.709457 174.260071,184.515762 
	C174.260071,182.424423 174.260071,180.528992 174.260071,178.623291 
	C176.940170,178.359161 179.338028,178.122864 181.735901,177.886551 
	C181.700974,177.482300 181.666061,177.078033 181.631149,176.673782 
	C178.483978,176.673782 175.336807,176.673782 172.020157,176.673782 
	C172.020157,182.492950 172.020157,188.231995 172.705612,194.340088 
M111.742676,182.642487 
	C111.816124,182.331070 111.889572,182.019638 111.963020,181.708221 
	C109.325279,182.001831 105.768982,181.338150 104.249016,182.796646 
	C101.446671,185.485626 101.560440,189.567642 104.177422,192.744553 
	C106.265358,195.279221 108.977478,196.130875 112.590958,192.864136 
	C107.239075,193.354187 104.190483,192.195053 104.886147,186.704346 
	C105.399780,182.650299 107.930878,182.538483 111.742676,182.642487 
M92.732101,176.153152 
	C90.356583,173.750870 90.188774,175.709457 90.173592,177.521027 
	C90.130638,182.642151 90.143707,187.764893 90.251381,192.884537 
	C90.263474,193.459396 91.022781,194.018524 91.435577,194.584946 
	C91.897514,194.533066 92.359444,194.481201 92.821381,194.429321 
	C92.821381,188.634460 92.821381,182.839615 92.732101,176.153152 
M86.877266,186.519958 
	C86.476242,185.358124 86.075218,184.196289 85.708618,183.134201 
	C83.989090,182.985031 82.633606,182.867447 81.877922,182.801880 
	C80.135025,183.365128 78.115936,184.017624 75.413803,184.890854 
	C75.714920,187.182968 76.040588,189.662003 76.366257,192.141037 
	C76.947655,192.011902 77.529045,191.882767 78.110443,191.753632 
	C77.789101,190.665146 77.467766,189.576645 77.179100,188.598816 
	C80.333282,188.119308 83.343109,187.661728 86.877266,186.519958 
M148.349228,183.951935 
	C148.117401,182.917603 147.885559,181.883270 147.653732,180.848953 
	C147.351654,180.913452 147.049576,180.977951 146.747498,181.042465 
	C146.093948,185.199951 145.440414,189.357452 144.843567,193.154236 
	C145.082474,193.227768 146.528427,193.672806 148.339218,194.230133 
	C148.339218,190.770538 148.339218,187.804413 148.349228,183.951935 
M117.200432,194.159653 
	C117.200432,189.726929 117.200432,185.294220 117.200432,180.861496 
	C116.627213,180.887360 116.053993,180.913239 115.480774,180.939102 
	C115.453415,185.454178 113.609390,189.989487 117.200432,194.159653 
M42.151791,127.496796 
	C42.477303,130.258301 44.141384,131.419327 46.508724,130.145874 
	C47.385315,129.674332 47.362663,127.531097 47.750114,126.150253 
	C45.981331,126.363785 44.212547,126.577309 42.151791,127.496796 
M137.497818,181.027466 
	C135.810883,189.401474 136.606186,192.979889 139.948456,193.359161 
	C139.447220,189.289352 138.938629,185.159698 137.497818,181.027466 
M98.979103,184.688843 
	C98.816429,183.431686 98.653748,182.174530 98.491074,180.917358 
	C98.150169,180.960632 97.809258,181.003906 97.468353,181.047180 
	C97.468353,185.402924 97.468353,189.758682 97.468353,194.114426 
	C97.963638,194.134674 98.458916,194.154922 98.954201,194.175171 
	C98.954201,191.328430 98.954201,188.481674 98.979103,184.688843 
z"/>
<path fill="#EFEFEF" opacity="1.000000" stroke="none" 
	d="
M193.938446,78.928886 
	C184.397430,101.772675 164.656082,115.086319 141.017197,114.928505 
	C111.782532,114.733315 87.460655,90.066429 86.634712,60.792725 
	C85.936356,36.040756 103.046875,11.632425 130.017303,5.352941 
	C155.045792,-0.474404 181.183167,12.400729 192.390732,36.403641 
	C198.788025,50.104542 199.237320,64.277321 193.938446,78.928886 
M165.886597,105.188789 
	C189.267776,92.394737 199.732300,65.689606 190.715897,41.825268 
	C181.366898,17.080702 155.759140,3.328849 129.986023,9.212199 
	C105.923645,14.705031 88.467560,38.394936 90.515739,62.777897 
	C92.258675,83.527161 108.943611,105.729263 123.811234,106.598503 
	C123.811234,92.148926 123.811234,77.718819 123.811234,63.342552 
	C125.780457,63.111679 127.365097,62.925892 129.973801,62.620041 
	C128.927460,60.336433 128.590927,57.687721 127.295807,57.079189 
	C117.223938,52.346794 114.216080,30.946808 123.583786,20.630890 
	C128.167175,15.583555 134.241669,15.660377 138.639496,21.012243 
	C143.596191,27.044191 144.567490,34.229771 143.576691,41.724350 
	C142.839371,47.301514 141.149445,52.725708 136.083282,55.769897 
	C133.034546,57.601856 132.463959,59.574909 133.344971,62.842709 
	C134.810120,62.983986 136.383331,63.135685 138.475769,63.337452 
	C138.475769,79.345856 138.475769,95.078339 138.475769,110.752022 
	C142.306534,110.752022 145.576584,110.752022 149.353745,110.752022 
	C149.353745,100.360107 149.353745,90.287071 149.353745,80.210373 
	C151.466431,80.017479 153.059586,79.872025 154.609314,79.730537 
	C154.609314,77.159889 154.609314,74.934807 154.609314,72.743790 
	C152.207657,72.475281 150.136627,72.243729 146.846176,71.875847 
	C147.737442,58.587105 148.174011,45.641430 149.648666,32.815105 
	C150.382446,26.432657 152.698074,20.085304 160.078476,17.716408 
	C165.072372,16.113514 166.094101,16.700809 166.103714,21.777527 
	C166.133102,37.271172 166.130844,52.764915 166.104828,68.258560 
	C166.102722,69.515076 165.826019,70.771126 165.668289,72.099998 
	C163.221161,72.357422 161.138809,72.576477 159.108200,72.790092 
	C159.108200,75.330658 159.108200,77.552063 159.108200,79.708916 
	C161.056946,79.956726 162.627838,80.156487 164.221848,80.359192 
	C164.221848,83.559151 164.131378,86.394241 164.241241,89.221535 
	C164.450439,94.605553 164.774033,99.985130 165.886597,105.188789 
M162.394043,27.722115 
	C162.394043,25.500486 162.394043,23.278858 162.394043,21.057230 
	C161.790970,20.809505 161.187881,20.561781 160.584808,20.314054 
	C158.485855,23.256277 154.968475,26.005951 154.538330,29.174709 
	C152.851776,41.598988 152.084274,54.151581 151.197678,66.672256 
	C151.143112,67.442741 153.003357,68.348816 154.698044,69.822578 
	C154.968063,65.879074 155.121475,63.638432 155.274902,61.397789 
	C155.860596,61.238575 156.446304,61.079357 157.031998,60.920143 
	C157.587784,62.317932 158.100464,63.734917 158.711960,65.107903 
	C159.279099,66.381340 159.951767,67.607780 160.577972,68.854912 
	C161.185104,67.580261 162.305573,66.311218 162.319565,65.030098 
	C162.451828,52.911442 162.395737,40.790730 162.394043,27.722115 
M123.322174,28.182587 
	C120.849060,35.241199 121.037262,42.298187 124.529335,48.846058 
	C125.685547,51.014023 128.640671,53.454060 130.817642,53.496510 
	C132.953568,53.538162 135.891708,51.141861 137.174301,49.025532 
	C141.102493,42.543884 141.195923,35.263828 138.481735,28.437761 
	C137.297562,25.459627 134.262054,22.079489 131.361984,21.195261 
	C127.270332,19.947718 125.273315,24.089731 123.322174,28.182587 
M127.218689,100.951813 
	C127.288506,102.068443 127.358315,103.185081 127.429726,104.327271 
	C134.870529,102.960785 134.870209,102.960785 134.868683,95.813370 
	C134.867920,92.199402 134.868546,88.585434 134.868546,84.957634 
	C127.469467,85.383362 127.217903,85.628036 127.215988,92.145271 
	C127.215210,94.787720 127.215561,97.430168 127.218689,100.951813 
M129.189484,82.103790 
	C135.611435,79.909119 136.418259,77.540474 134.246185,67.221115 
	C132.026627,67.221115 129.807083,67.221115 126.738319,67.221115 
	C127.291756,72.480698 127.804588,77.354431 129.189484,82.103790 
M153.002304,94.213303 
	C155.293991,93.928162 159.124695,94.297188 159.578033,93.230667 
	C160.761627,90.446060 160.466949,87.033127 160.781372,83.660217 
	C157.759903,83.660217 155.548355,83.660217 152.991226,83.660217 
	C152.991226,87.062614 152.991226,90.173615 153.002304,94.213303 
M155.773651,109.262131 
	C161.299637,107.619606 161.708557,106.507858 159.964890,97.867386 
	C153.358795,98.757278 150.854019,102.993324 153.307373,109.261467 
	C153.399796,109.497643 154.392395,109.381485 155.773651,109.262131 
z"/>
<path fill="#E3E3E3" opacity="1.000000" stroke="none" 
	d="
M191.348312,157.603958 
	C184.164566,158.591583 181.457474,153.596069 178.313660,149.022614 
	C177.021423,147.142731 175.136765,145.670074 172.912216,144.525085 
	C172.771652,149.212540 169.487579,154.436127 175.955948,157.289917 
	C171.753036,157.289917 167.550125,157.289917 163.463501,157.289917 
	C170.761490,150.514099 166.009552,142.052841 167.053268,134.632812 
	C167.297958,132.893280 165.244598,130.830505 164.230545,128.881912 
	C167.468918,127.040558 182.127213,127.795212 185.533508,130.543335 
	C190.239105,134.339691 188.444046,140.044632 180.898621,143.777664 
	C183.992920,148.235687 185.865158,153.492828 191.369995,155.881409 
	C191.658493,156.006607 191.605240,156.919418 191.348312,157.603958 
M172.050507,134.756271 
	C172.050507,137.335861 172.050507,139.915436 172.050507,142.997223 
	C175.064407,142.620300 177.964951,143.094925 179.418655,141.862701 
	C181.215363,140.339722 182.748367,137.379532 182.700684,135.075378 
	C182.632156,131.763397 179.689758,130.278183 176.367783,130.074020 
	C173.629974,129.905777 171.767288,130.642181 172.050507,134.756271 
z"/>
<path fill="#EAEAEA" opacity="1.000000" stroke="none" 
	d="
M35.685940,138.855042 
	C38.106342,151.853790 28.857689,157.384537 19.823467,157.611511 
	C15.595994,157.717712 11.363642,157.629684 6.674444,157.629684 
	C12.582664,151.707703 12.447260,132.438507 6.957819,129.377762 
	C16.195509,124.318031 31.549931,129.206390 35.685940,138.855042 
M30.038702,139.099670 
	C27.129612,131.200211 23.253870,128.985580 15.189916,130.814331 
	C15.189916,137.712540 15.214724,144.670258 15.178251,151.627655 
	C15.162686,154.596863 16.718401,155.713882 19.508345,155.843765 
	C24.990564,156.099014 29.191759,152.916214 29.998066,147.407990 
	C30.354691,144.971725 30.109369,142.447342 30.038702,139.099670 
z"/>
<path fill="#E5E5E5" opacity="1.000000" stroke="none" 
	d="
M213.198608,154.184998 
	C208.478195,158.489136 203.070343,159.231415 198.944092,156.431213 
	C194.528214,153.434464 193.031433,147.601318 195.292160,142.199081 
	C197.146301,137.768402 201.687500,135.065445 206.643326,136.228729 
	C208.816483,136.738861 211.260406,138.358871 212.478760,140.203262 
	C215.037033,144.076050 213.586441,146.219421 208.873749,146.314789 
	C205.892075,146.375137 202.908188,146.326065 198.170853,146.326065 
	C199.930420,149.725723 200.667603,152.931351 202.679901,154.589798 
	C205.229568,156.691086 208.563843,156.283432 211.204483,153.544449 
	C212.751633,151.939651 212.892227,152.075195 213.198608,154.184998 
M202.974655,138.022736 
	C201.505966,139.843246 200.037292,141.663742 198.568604,143.484253 
	C199.055450,144.179764 199.542282,144.875275 200.029129,145.570770 
	C203.017319,144.467941 207.382828,144.172623 208.628403,142.048111 
	C210.034546,139.649750 206.970490,137.599823 202.974655,138.022736 
z"/>
<path fill="#E7E7E7" opacity="1.000000" stroke="none" 
	d="
M116.888168,136.447662 
	C122.022652,135.540649 126.307556,135.907089 128.475021,141.135757 
	C129.754761,144.222946 129.464539,146.363358 125.379471,146.293427 
	C121.940895,146.234543 118.500504,146.281311 115.088928,146.281311 
	C114.992462,153.446213 115.287224,153.757126 124.302010,156.596161 
	C119.788544,159.358780 114.280884,157.980331 111.426506,153.373718 
	C107.716003,147.385437 109.759926,140.646606 116.888168,136.447662 
M115.001457,141.921600 
	C115.268570,147.487793 119.404945,144.068054 121.617195,144.476288 
	C124.234428,144.959244 125.108269,142.779083 123.932442,140.548752 
	C123.336494,139.418350 121.616325,137.833496 120.844879,138.046844 
	C118.844490,138.600021 117.088272,140.036179 115.001457,141.921600 
z"/>
<path fill="#EFEFEF" opacity="1.000000" stroke="none" 
	d="
M241.870819,155.874939 
	C241.392151,151.041641 241.253571,146.579971 240.746445,142.160583 
	C240.554184,140.485153 239.512711,138.907166 238.670181,136.818268 
	C239.995468,135.338089 242.053192,133.039917 244.629501,130.162521 
	C244.818863,132.514709 244.954651,134.201263 245.102173,136.033798 
	C246.992096,136.222778 248.831589,136.406738 250.671066,136.590683 
	C250.708069,136.961517 250.745056,137.332336 250.782059,137.703171 
	C249.053040,138.055862 247.324020,138.408554 245.088272,138.864609 
	C245.088272,143.353317 244.616333,148.032928 245.331360,152.523514 
	C245.599792,154.209335 248.625458,155.456100 251.006302,157.403961 
	C248.353302,158.157196 245.308975,159.367493 241.870819,155.874939 
z"/>
<path fill="#E3E3E3" opacity="1.000000" stroke="none" 
	d="
M61.140594,137.692719 
	C62.203690,137.481567 63.368202,137.480865 64.313507,137.025284 
	C70.688866,133.952789 75.729156,136.873444 75.969269,143.891861 
	C76.042816,146.041534 75.716057,148.235413 76.037682,150.337891 
	C76.391144,152.648544 77.281013,154.877136 78.005409,157.376953 
	C75.480759,157.376953 71.985390,157.376953 67.944870,157.376953 
	C74.095047,152.813782 71.796890,146.700439 70.906784,141.466339 
	C70.116554,136.819504 65.765152,139.131653 62.112892,139.571075 
	C61.382565,138.945755 61.261581,138.319244 61.140594,137.692719 
z"/>
<path fill="#DADADA" opacity="1.000000" stroke="none" 
	d="
M90.059570,139.025528 
	C92.730034,135.702789 96.689743,134.664230 99.786781,136.772308 
	C102.000252,138.278946 102.873337,142.081024 103.801353,145.029785 
	C104.374657,146.851456 103.683624,149.034821 104.008835,150.980835 
	C104.344467,152.989151 105.223679,154.906616 106.001205,157.279236 
	C103.378723,157.279236 99.838318,157.279236 96.049820,157.279236 
	C99.014755,154.699875 100.920662,142.839157 98.353020,140.566116 
	C96.940788,139.315933 93.974731,139.820984 91.209122,139.502655 
	C90.512611,139.292969 90.296135,139.144592 90.059570,139.025528 
z"/>
<path fill="#D8D8D8" opacity="1.000000" stroke="none" 
	d="
M46.995083,136.100342 
	C47.554829,141.210663 47.527702,146.167465 47.955505,151.084686 
	C48.132088,153.114334 49.285290,155.059021 50.089615,157.308960 
	C47.407379,157.308960 43.856579,157.308960 40.243618,157.308960 
	C44.637077,152.783005 44.579594,141.132278 39.584652,137.419876 
	C42.232143,136.857269 44.411850,136.394073 46.995083,136.100342 
z"/>
<path fill="#ECECEC" opacity="1.000000" stroke="none" 
	d="
M141.981064,139.895828 
	C138.927872,145.025574 139.776581,154.380569 144.185135,157.324356 
	C140.087021,157.324356 136.651978,157.324356 133.082657,157.324356 
	C137.307159,153.265411 137.225723,140.780609 132.967422,137.122055 
	C135.381805,137.010529 137.796204,136.899002 140.188187,137.489044 
	C140.770874,138.759003 141.375977,139.327423 141.981064,139.895828 
z"/>
<path fill="#E5E5E5" opacity="1.000000" stroke="none" 
	d="
M61.208611,137.302246 
	C61.261581,138.319244 61.382565,138.945755 61.751598,139.786072 
	C61.808998,144.104294 61.351772,148.222351 61.560410,152.306396 
	C61.642540,153.914078 63.211758,155.445801 64.259132,157.284882 
	C61.220341,157.284882 57.682262,157.284882 54.069271,157.284882 
	C58.487839,153.157715 58.417046,140.939133 53.967991,136.911774 
	C56.404202,136.911774 58.840416,136.911774 61.208611,137.302246 
z"/>
<path fill="#EAEAEA" opacity="1.000000" stroke="none" 
	d="
M89.681717,138.898254 
	C90.296135,139.144592 90.512611,139.292969 90.832016,139.624817 
	C87.499336,144.464523 88.376953,154.313354 93.452255,157.176941 
	C88.926819,157.176941 85.398415,157.176941 81.581749,157.176941 
	C86.305191,153.698776 86.288773,140.817200 81.846115,138.208633 
	C86.640213,135.261993 88.150551,135.375885 89.681717,138.898254 
z"/>
<path fill="#EAEAEA" opacity="1.000000" stroke="none" 
	d="
M228.013733,156.137711 
	C231.829636,153.268631 231.799637,151.341461 227.798248,149.583221 
	C225.842682,148.723938 223.654053,148.362625 221.759460,147.403488 
	C217.297028,145.144333 217.177216,140.802200 221.860931,137.665817 
	C221.034927,143.121048 224.634171,144.348938 228.557602,145.467209 
	C231.436401,146.287750 234.322693,147.268219 234.328323,151.209671 
	C234.333862,155.093674 231.947296,156.757095 228.379486,157.507965 
	C228.028915,156.859100 228.021317,156.498413 228.013733,156.137711 
z"/>
<path fill="#141414" opacity="1.000000" stroke="none" 
	d="
M194.017532,193.180069 
	C191.324020,193.555496 188.231003,194.943466 186.028519,194.074417 
	C182.526474,192.692642 182.295731,189.026443 184.072601,185.308136 
	C185.554749,184.576721 186.357376,184.086807 187.145676,183.574799 
	C190.714951,181.256439 193.759094,182.719589 193.819672,187.026978 
	C193.843170,188.698166 192.830841,190.367752 192.488876,192.077759 
	C192.437820,192.333069 193.480713,192.807175 194.017532,193.180069 
z"/>
<path fill="#EAEAEA" opacity="1.000000" stroke="none" 
	d="
M266.175507,157.006042 
	C261.986938,158.540771 256.842163,154.639328 255.909073,149.220734 
	C254.666168,142.003098 259.392517,136.874786 267.590881,137.256836 
	C268.018097,137.504654 268.034149,137.848938 267.639404,137.910309 
	C263.854706,137.641205 261.591217,139.432922 261.375732,142.511597 
	C261.121155,146.149063 261.848206,149.855240 262.255493,153.805817 
	C262.961090,154.560211 263.560852,155.040421 264.173401,155.506561 
	C264.186157,155.492493 264.175018,155.530350 264.438477,155.726135 
	C265.193115,156.283279 265.684326,156.644669 266.175507,157.006042 
z"/>
<path fill="#D8D8D8" opacity="1.000000" stroke="none" 
	d="
M172.362885,194.155548 
	C172.020157,188.231995 172.020157,182.492950 172.020157,176.673782 
	C175.336807,176.673782 178.483978,176.673782 181.631149,176.673782 
	C181.666061,177.078033 181.700974,177.482300 181.735901,177.886551 
	C179.338028,178.122864 176.940170,178.359161 174.260071,178.623291 
	C174.260071,180.528992 174.260071,182.424423 174.260071,184.515762 
	C176.602463,184.709457 178.909760,184.900238 181.217041,185.091034 
	C181.221100,185.563934 181.225159,186.036835 181.229218,186.509735 
	C178.941269,186.702438 176.653320,186.895142 174.658951,187.063126 
	C173.967133,189.640396 173.336380,191.990234 172.362885,194.155548 
z"/>
<path fill="#EFEFEF" opacity="1.000000" stroke="none" 
	d="
M268.034149,137.848938 
	C268.034149,137.848938 268.018097,137.504654 268.011322,137.332458 
	C271.582275,135.690231 274.290588,137.840744 275.200592,140.459961 
	C276.399261,143.910080 276.647583,147.931412 276.240875,151.588882 
	C276.058228,153.231491 273.296570,154.587296 270.997742,156.152924 
	C270.141815,155.807632 269.993317,155.382629 270.196686,154.816040 
	C272.951141,150.650543 273.799164,146.470840 271.859283,141.769440 
	C271.828522,141.160614 271.604492,140.958694 271.155548,140.579407 
	C270.781067,139.904800 270.479401,139.576294 270.160950,139.121735 
	C269.956299,138.775803 269.733826,138.695465 269.150635,138.473190 
	C268.561127,138.077454 268.297638,137.963196 268.034149,137.848938 
z"/>
<path fill="#101010" opacity="1.000000" stroke="none" 
	d="
M123.994049,181.791412 
	C126.193344,179.167969 128.249908,178.506393 130.061554,183.017944 
	C130.480621,184.860260 131.237503,185.978073 131.081833,186.949707 
	C130.792236,188.757278 130.322510,190.765121 129.223923,192.118073 
	C128.667618,192.803162 125.778595,192.784698 125.336044,192.135513 
	C124.256378,190.551697 123.737831,188.448456 123.473976,186.489594 
	C123.269875,184.974380 123.793785,183.361099 123.994049,181.791412 
z"/>
<path fill="#D2D2D2" opacity="1.000000" stroke="none" 
	d="
M123.626114,181.885330 
	C123.793785,183.361099 123.269875,184.974380 123.473976,186.489594 
	C123.737831,188.448456 124.256378,190.551697 125.336044,192.135513 
	C125.778595,192.784698 128.667618,192.803162 129.223923,192.118073 
	C130.322510,190.765121 130.792236,188.757278 131.081833,186.949707 
	C131.237503,185.978073 130.480621,184.860260 130.069351,183.409210 
	C133.844757,182.327606 133.403931,185.363831 133.514984,187.421951 
	C133.693802,190.735397 132.794647,194.173416 128.908829,194.292160 
	C126.581085,194.363281 123.276627,193.148346 122.042274,191.375671 
	C120.020683,188.472458 120.305405,184.789825 123.626114,181.885330 
z"/>
<path fill="#141414" opacity="1.000000" stroke="none" 
	d="
M201.980331,181.648682 
	C204.638260,178.435104 207.505081,179.473160 209.967728,181.651276 
	C212.739578,184.102905 213.145584,189.758713 210.904465,192.459351 
	C210.023224,193.521301 208.573654,194.111664 206.728104,194.702148 
	C205.216080,193.732071 204.358856,192.976593 203.881256,192.146606 
	C205.438385,192.072098 206.615891,192.072098 208.010086,192.072098 
	C207.623917,189.620224 207.005707,187.707809 207.098480,185.830521 
	C207.252335,182.717056 205.767075,181.809021 202.752945,181.957123 
	C202.308838,181.831436 202.144592,181.740067 201.980331,181.648682 
z"/>
<path fill="#ECECEC" opacity="1.000000" stroke="none" 
	d="
M66.981949,193.840057 
	C64.221649,194.077896 61.461357,194.315750 58.307964,194.587479 
	C58.307964,188.382935 58.307964,182.584305 58.307964,175.967957 
	C61.866875,176.451904 65.213318,176.906952 68.643295,177.910767 
	C68.415649,178.674744 68.104462,178.889954 67.402931,179.049683 
	C64.833633,178.667297 62.654675,178.340393 60.310741,177.988739 
	C60.310741,183.307022 60.310741,187.883911 60.310741,192.740540 
	C62.744400,192.474503 64.873077,192.241791 67.005348,192.314301 
	C66.999939,193.026367 66.990944,193.433212 66.981949,193.840057 
z"/>
<path fill="#C4C4C4" opacity="1.000000" stroke="none" 
	d="
M222.956619,193.728348 
	C220.593033,193.521698 216.559998,193.964767 216.179214,192.986435 
	C215.041656,190.063568 214.489441,186.356033 215.290726,183.381027 
	C216.223846,179.916580 219.741409,180.219711 222.862366,181.850021 
	C222.936783,182.722641 222.922836,182.950516 222.490463,183.073135 
	C220.403595,183.574814 217.647736,183.819763 217.299408,184.866165 
	C216.632278,186.870193 216.803833,189.582367 217.710922,191.483810 
	C218.109360,192.319046 221.163315,191.887466 223.036438,192.315948 
	C223.026428,192.976639 222.991531,193.352493 222.956619,193.728348 
z"/>
<path fill="#DADADA" opacity="1.000000" stroke="none" 
	d="
M111.354538,182.755722 
	C107.930878,182.538483 105.399780,182.650299 104.886147,186.704346 
	C104.190483,192.195053 107.239075,193.354187 112.590958,192.864136 
	C108.977478,196.130875 106.265358,195.279221 104.177422,192.744553 
	C101.560440,189.567642 101.446671,185.485626 104.249016,182.796646 
	C105.768982,181.338150 109.325279,182.001831 111.963028,181.708221 
	C111.889572,182.019638 111.816124,182.331070 111.354538,182.755722 
z"/>
<path fill="#E3E3E3" opacity="1.000000" stroke="none" 
	d="
M223.381775,193.661774 
	C222.991531,193.352493 223.026428,192.976639 223.264313,191.994370 
	C223.281158,188.651428 223.095016,185.914917 222.908875,183.178391 
	C222.922836,182.950516 222.936783,182.722641 223.001633,182.156128 
	C223.637512,179.634659 224.222504,177.451828 224.807495,175.268982 
	C225.131058,175.211197 225.454605,175.153412 225.778168,175.095612 
	C225.941986,176.500229 226.225906,177.903030 226.247055,179.309784 
	C226.309677,183.475098 226.372360,187.647308 226.158173,191.802551 
	C226.125366,192.438797 224.627304,192.999527 223.381775,193.661774 
z"/>
<path fill="#ADADAD" opacity="1.000000" stroke="none" 
	d="
M92.776741,176.598953 
	C92.821381,182.839615 92.821381,188.634460 92.821381,194.429321 
	C92.359444,194.481201 91.897514,194.533066 91.435577,194.584946 
	C91.022781,194.018524 90.263474,193.459396 90.251381,192.884537 
	C90.143707,187.764893 90.130638,182.642151 90.173592,177.521027 
	C90.188774,175.709457 90.356583,173.750870 92.776741,176.598953 
z"/>
<path fill="#EFEFEF" opacity="1.000000" stroke="none" 
	d="
M86.615097,186.862061 
	C83.343109,187.661728 80.333282,188.119308 77.179100,188.598816 
	C77.467766,189.576645 77.789101,190.665146 78.110443,191.753632 
	C77.529045,191.882767 76.947655,192.011902 76.366257,192.141037 
	C76.040588,189.662003 75.714920,187.182968 75.413803,184.890854 
	C78.115936,184.017624 80.135025,183.365128 81.877922,182.801880 
	C82.633606,182.867447 83.989090,182.985031 85.708618,183.134201 
	C86.075218,184.196289 86.476242,185.358124 86.615097,186.862061 
z"/>
<path fill="#E3E3E3" opacity="1.000000" stroke="none" 
	d="
M194.343994,192.968979 
	C193.480713,192.807175 192.437820,192.333069 192.488876,192.077759 
	C192.830841,190.367752 193.843170,188.698166 193.819672,187.026978 
	C193.759094,182.719589 190.714951,181.256439 187.145676,183.574799 
	C186.357376,184.086807 185.554749,184.576721 184.355652,185.044342 
	C184.950653,180.325287 188.770554,179.724731 191.888031,181.179398 
	C193.907211,182.121582 195.065628,185.565430 195.896423,188.120285 
	C196.311966,189.398132 195.129929,191.195496 194.343994,192.968979 
z"/>
<path fill="#DADADA" opacity="1.000000" stroke="none" 
	d="
M148.344223,184.395111 
	C148.339218,187.804413 148.339218,190.770538 148.339218,194.230133 
	C146.528427,193.672806 145.082474,193.227768 144.843567,193.154236 
	C145.440414,189.357452 146.093948,185.199951 146.747498,181.042465 
	C147.049576,180.977951 147.351654,180.913452 147.653732,180.848953 
	C147.885559,181.883270 148.117401,182.917603 148.344223,184.395111 
z"/>
<path fill="#D8D8D8" opacity="1.000000" stroke="none" 
	d="
M67.327148,193.815842 
	C66.990944,193.433212 66.999939,193.026367 67.261734,192.056046 
	C71.021400,187.125748 71.091843,183.995468 67.793274,179.105164 
	C68.104462,178.889954 68.415649,178.674744 68.871597,178.213379 
	C74.517174,182.922974 73.956680,189.522171 67.327148,193.815842 
z"/>
<path fill="#D8D8D8" opacity="1.000000" stroke="none" 
	d="
M227.580872,156.095734 
	C228.021317,156.498413 228.028915,156.859100 228.029358,157.490311 
	C225.272919,157.472870 222.375534,157.602417 219.842850,156.703918 
	C218.735977,156.311218 217.862625,153.811356 217.873367,152.275314 
	C217.879562,151.391983 219.866531,150.522522 221.669220,149.667648 
	C220.313400,155.257690 222.909393,156.465668 227.580872,156.095734 
z"/>
<path fill="#ADADAD" opacity="1.000000" stroke="none" 
	d="
M116.827957,194.316132 
	C113.609390,189.989487 115.453415,185.454178 115.480774,180.939102 
	C116.053993,180.913239 116.627213,180.887360 117.200432,180.861496 
	C117.200432,185.294220 117.200432,189.726929 116.827957,194.316132 
z"/>
<path fill="#D8D8D8" opacity="1.000000" stroke="none" 
	d="
M203.501633,192.221130 
	C204.358856,192.976593 205.216080,193.732071 206.350937,194.654602 
	C198.685623,193.883560 196.396774,188.391418 201.605225,181.758316 
	C202.144592,181.740067 202.308838,181.831436 202.718460,182.320740 
	C200.871338,186.014725 199.558792,189.266647 203.501633,192.221130 
z"/>
<path fill="#E3E3E3" opacity="1.000000" stroke="none" 
	d="
M142.352936,139.778717 
	C141.375977,139.327423 140.770874,138.759003 140.113770,137.864349 
	C141.509888,137.205124 142.992798,136.499893 144.397537,136.631180 
	C146.251907,136.804443 148.044983,137.633667 149.864395,138.180923 
	C149.265289,139.939453 148.666199,141.697968 147.870499,144.033600 
	C145.228348,142.090698 147.242172,136.909409 142.352936,139.778717 
z"/>
<path fill="#E5E5E5" opacity="1.000000" stroke="none" 
	d="
M42.297775,127.143814 
	C44.212547,126.577309 45.981331,126.363785 47.750114,126.150253 
	C47.362663,127.531097 47.385315,129.674332 46.508724,130.145874 
	C44.141384,131.419327 42.477303,130.258301 42.297775,127.143814 
z"/>
<path fill="#DADADA" opacity="1.000000" stroke="none" 
	d="
M137.963928,181.028763 
	C138.938629,185.159698 139.447220,189.289352 139.948456,193.359161 
	C136.606186,192.979889 135.810883,189.401474 137.963928,181.028763 
z"/>
<path fill="#ECECEC" opacity="1.000000" stroke="none" 
	d="
M98.966652,185.161880 
	C98.954201,188.481674 98.954201,191.328430 98.954201,194.175171 
	C98.458916,194.154922 97.963638,194.134674 97.468353,194.114426 
	C97.468353,189.758682 97.468353,185.402924 97.468353,181.047180 
	C97.809258,181.003906 98.150169,180.960632 98.491074,180.917358 
	C98.653748,182.174530 98.816429,183.431686 98.966652,185.161880 
z"/>
<path fill="#0A0A0A" opacity="1.000000" stroke="none" 
	d="
M269.844788,154.957642 
	C269.993317,155.382629 270.141815,155.807632 270.651337,156.290741 
	C269.621063,156.599014 268.229797,156.849182 266.507019,157.052689 
	C265.684326,156.644669 265.193115,156.283279 264.900696,155.604248 
	C266.681244,155.176926 268.263031,155.067291 269.844788,154.957642 
z"/>
<path fill="#080808" opacity="1.000000" stroke="none" 
	d="
M165.468353,105.277664 
	C164.774033,99.985130 164.450439,94.605553 164.241241,89.221535 
	C164.131378,86.394241 164.221848,83.559151 164.221848,80.359192 
	C162.627838,80.156487 161.056946,79.956726 159.108200,79.708916 
	C159.108200,77.552063 159.108200,75.330658 159.108200,72.790092 
	C161.138809,72.576477 163.221161,72.357422 165.668289,72.099998 
	C165.826019,70.771126 166.102722,69.515076 166.104828,68.258560 
	C166.130844,52.764915 166.133102,37.271172 166.103714,21.777527 
	C166.094101,16.700809 165.072372,16.113514 160.078476,17.716408 
	C152.698074,20.085304 150.382446,26.432657 149.648666,32.815105 
	C148.174011,45.641430 147.737442,58.587105 146.846176,71.875847 
	C150.136627,72.243729 152.207657,72.475281 154.609314,72.743790 
	C154.609314,74.934807 154.609314,77.159889 154.609314,79.730537 
	C153.059586,79.872025 151.466431,80.017479 149.353745,80.210373 
	C149.353745,90.287071 149.353745,100.360107 149.353745,110.752022 
	C145.576584,110.752022 142.306534,110.752022 138.475769,110.752022 
	C138.475769,95.078339 138.475769,79.345856 138.475769,63.337452 
	C136.383331,63.135685 134.810120,62.983986 133.344971,62.842709 
	C132.463959,59.574909 133.034546,57.601856 136.083282,55.769897 
	C141.149445,52.725708 142.839371,47.301514 143.576691,41.724350 
	C144.567490,34.229771 143.596191,27.044191 138.639496,21.012243 
	C134.241669,15.660377 128.167175,15.583555 123.583786,20.630890 
	C114.216080,30.946808 117.223938,52.346794 127.295807,57.079189 
	C128.590927,57.687721 128.927460,60.336433 129.973801,62.620041 
	C127.365097,62.925892 125.780457,63.111679 123.811234,63.342552 
	C123.811234,77.718819 123.811234,92.148926 123.811234,106.598503 
	C108.943611,105.729263 92.258675,83.527161 90.515739,62.777897 
	C88.467560,38.394936 105.923645,14.705031 129.986023,9.212199 
	C155.759140,3.328849 181.366898,17.080702 190.715897,41.825268 
	C199.732300,65.689606 189.267776,92.394737 165.468353,105.277664 
M103.227554,80.072952 
	C102.116463,75.938110 101.146088,71.756844 99.807098,67.697166 
	C99.413773,66.504631 97.975113,65.656876 96.208397,63.805103 
	C95.845360,77.863831 109.980621,100.776291 117.320709,99.319878 
	C117.716476,98.541359 118.212639,97.565346 118.049294,97.886673 
	C112.925293,91.770821 108.285744,86.233192 103.227554,80.072952 
z"/>
<path fill="#262626" opacity="1.000000" stroke="none" 
	d="
M162.393982,28.196363 
	C162.395737,40.790730 162.451828,52.911442 162.319565,65.030098 
	C162.305573,66.311218 161.185104,67.580261 160.577972,68.854912 
	C159.951767,67.607780 159.279099,66.381340 158.711960,65.107903 
	C158.100464,63.734917 157.587784,62.317932 157.031998,60.920143 
	C156.446304,61.079357 155.860596,61.238575 155.274902,61.397789 
	C155.121475,63.638432 154.968063,65.879074 154.698044,69.822578 
	C153.003357,68.348816 151.143112,67.442741 151.197678,66.672256 
	C152.084274,54.151581 152.851776,41.598988 154.538330,29.174709 
	C154.968475,26.005951 158.485855,23.256277 160.584808,20.314054 
	C161.187881,20.561781 161.790970,20.809505 162.394043,21.057230 
	C162.394043,23.278858 162.394043,25.500486 162.393982,28.196363 
z"/>
<path fill="#060606" opacity="1.000000" stroke="none" 
	d="
M123.505646,27.826561 
	C125.273315,24.089731 127.270332,19.947718 131.361984,21.195261 
	C134.262054,22.079489 137.297562,25.459627 138.481735,28.437761 
	C141.195923,35.263828 141.102493,42.543884 137.174301,49.025532 
	C135.891708,51.141861 132.953568,53.538162 130.817642,53.496510 
	C128.640671,53.454060 125.685547,51.014023 124.529335,48.846058 
	C121.037262,42.298187 120.849060,35.241199 123.505646,27.826561 
z"/>
<path fill="#171717" opacity="1.000000" stroke="none" 
	d="
M127.217041,100.512215 
	C127.215561,97.430168 127.215210,94.787720 127.215988,92.145271 
	C127.217903,85.628036 127.469467,85.383362 134.868546,84.957634 
	C134.868546,88.585434 134.867920,92.199402 134.868683,95.813370 
	C134.870209,102.960785 134.870529,102.960785 127.429726,104.327271 
	C127.358315,103.185081 127.288506,102.068443 127.217041,100.512215 
z"/>
<path fill="#171717" opacity="1.000000" stroke="none" 
	d="
M128.753448,82.165970 
	C127.804588,77.354431 127.291756,72.480698 126.738319,67.221115 
	C129.807083,67.221115 132.026627,67.221115 134.253296,67.219086 
	C136.418259,77.540474 135.611435,79.909119 128.753448,82.165970 
z"/>
<path fill="#1C1C1C" opacity="1.000000" stroke="none" 
	d="
M152.996765,93.748962 
	C152.991226,90.173615 152.991226,87.062614 152.991226,83.660217 
	C155.548355,83.660217 157.759903,83.660217 160.781372,83.660217 
	C160.466949,87.033127 160.761627,90.446060 159.578033,93.230667 
	C159.124695,94.297188 155.293991,93.928162 152.996765,93.748962 
z"/>
<path fill="#191919" opacity="1.000000" stroke="none" 
	d="
M155.369598,109.345825 
	C154.392395,109.381485 153.399796,109.497643 153.307373,109.261467 
	C150.854019,102.993324 153.358795,98.757278 159.964890,97.867386 
	C161.708557,106.507858 161.299637,107.619606 155.369598,109.345825 
z"/>
<path fill="#101010" opacity="1.000000" stroke="none" 
	d="
M172.062683,134.315186 
	C171.767288,130.642181 173.629974,129.905777 176.367783,130.074020 
	C179.689758,130.278183 182.632156,131.763397 182.700684,135.075378 
	C182.748367,137.379532 181.215363,140.339722 179.418655,141.862701 
	C177.964951,143.094925 175.064407,142.620300 172.050507,142.997223 
	C172.050507,139.915436 172.050507,137.335861 172.062683,134.315186 
z"/>
<path fill="#0A0A0A" opacity="1.000000" stroke="none" 
	d="
M30.088005,139.531311 
	C30.109369,142.447342 30.354691,144.971725 29.998066,147.407990 
	C29.191759,152.916214 24.990564,156.099014 19.508345,155.843765 
	C16.718401,155.713882 15.162686,154.596863 15.178251,151.627655 
	C15.214724,144.670258 15.189916,137.712540 15.189916,130.814331 
	C23.253870,128.985580 27.129612,131.200211 30.088005,139.531311 
z"/>
<path fill="#171717" opacity="1.000000" stroke="none" 
	d="
M203.369873,137.958954 
	C206.970490,137.599823 210.034546,139.649750 208.628403,142.048111 
	C207.382828,144.172623 203.017319,144.467941 200.029129,145.570770 
	C199.542282,144.875275 199.055450,144.179764 198.568604,143.484253 
	C200.037292,141.663742 201.505966,139.843246 203.369873,137.958954 
z"/>
<path fill="#191919" opacity="1.000000" stroke="none" 
	d="
M115.118027,141.520752 
	C117.088272,140.036179 118.844490,138.600021 120.844879,138.046844 
	C121.616325,137.833496 123.336494,139.418350 123.932442,140.548752 
	C125.108269,142.779083 124.234428,144.959244 121.617195,144.476288 
	C119.404945,144.068054 115.268570,147.487793 115.118027,141.520752 
z"/>
<path fill="#020202" opacity="1.000000" stroke="none" 
	d="
M270.196686,154.816055 
	C268.263031,155.067291 266.681244,155.176926 264.637268,155.408463 
	C264.175018,155.530350 264.186157,155.492493 264.327423,155.125397 
	C263.695679,154.349426 262.922699,153.940521 262.149658,153.531631 
	C261.848206,149.855240 261.121155,146.149063 261.375732,142.511597 
	C261.591217,139.432922 263.854706,137.641205 267.639404,137.910309 
	C268.297638,137.963196 268.561127,138.077454 268.729370,138.560699 
	C268.207428,139.552811 267.780670,140.175949 267.353912,140.799072 
	C268.841980,141.201904 270.330017,141.604752 271.818085,142.007599 
	C273.799164,146.470840 272.951141,150.650543 270.196686,154.816055 
z"/>
<path fill="#0A0A0A" opacity="1.000000" stroke="none" 
	d="
M262.255493,153.805817 
	C262.922699,153.940521 263.695679,154.349426 264.314667,155.139465 
	C263.560852,155.040421 262.961090,154.560211 262.255493,153.805817 
z"/>
<path fill="#0A0A0A" opacity="1.000000" stroke="none" 
	d="
M271.859283,141.769440 
	C270.330017,141.604752 268.841980,141.201904 267.353912,140.799072 
	C267.780670,140.175949 268.207428,139.552811 269.055420,138.842194 
	C269.733826,138.695465 269.956299,138.775803 270.223633,139.464142 
	C270.611572,140.263550 270.919983,140.594543 271.228394,140.925522 
	C271.604492,140.958694 271.828522,141.160614 271.859283,141.769440 
z"/>
<path fill="#020202" opacity="1.000000" stroke="none" 
	d="
M271.155548,140.579407 
	C270.919983,140.594543 270.611572,140.263550 270.240479,139.590179 
	C270.479401,139.576294 270.781067,139.904800 271.155548,140.579407 
z"/>
<path fill="#020202" opacity="1.000000" stroke="none" 
	d="
M203.881256,192.146606 
	C199.558792,189.266647 200.871338,186.014725 202.998306,182.355042 
	C205.767075,181.809021 207.252335,182.717056 207.098480,185.830521 
	C207.005707,187.707809 207.623917,189.620224 208.010086,192.072098 
	C206.615891,192.072098 205.438385,192.072098 203.881256,192.146606 
z"/>
<path fill="#0E0E0E" opacity="1.000000" stroke="none" 
	d="
M67.402939,179.049683 
	C71.091843,183.995468 71.021400,187.125748 67.258148,191.750824 
	C64.873077,192.241791 62.744400,192.474503 60.310741,192.740540 
	C60.310741,187.883911 60.310741,183.307022 60.310741,177.988739 
	C62.654675,178.340393 64.833633,178.667297 67.402939,179.049683 
z"/>
<path fill="#0A0A0A" opacity="1.000000" stroke="none" 
	d="
M222.490463,183.073135 
	C223.095016,185.914917 223.281158,188.651428 223.239410,191.709534 
	C221.163315,191.887466 218.109360,192.319046 217.710922,191.483810 
	C216.803833,189.582367 216.632278,186.870193 217.299408,184.866165 
	C217.647736,183.819763 220.403595,183.574814 222.490463,183.073135 
z"/>
<path fill="#EAEAEA" opacity="1.000000" stroke="none" 
	d="
M103.436874,80.384262 
	C108.285744,86.233192 112.925293,91.770821 118.049294,97.886673 
	C118.212639,97.565346 117.716476,98.541359 117.320709,99.319878 
	C109.980621,100.776291 95.845360,77.863831 96.208397,63.805103 
	C97.975113,65.656876 99.413773,66.504631 99.807098,67.697166 
	C101.146088,71.756844 102.116463,75.938110 103.436874,80.384262 
z"/>
</svg>