<svg version="1.1" id="Layer_1" xmlns="http://www.w3.org/2000/svg" xmlns:xlink="http://www.w3.org/1999/xlink" x="0px" y="0px"
	 width="100%" viewBox="0 0 282 206" enable-background="new 0 0 282 206" xml:space="preserve">
<path fill="#FDFDFD" opacity="1.000000" stroke="none" 
	d="
M182.000000,207.000000 
	C121.333344,207.000000 61.166679,207.000000 1.000016,207.000000 
	C1.000011,138.333344 1.000011,69.666695 1.000005,1.000035 
	C94.999969,1.000023 188.999939,1.000023 282.999939,1.000012 
	C282.999939,69.666634 282.999939,138.333267 282.999969,206.999939 
	C249.500000,207.000000 216.000000,207.000000 182.000000,207.000000 
M143.649780,193.805374 
	C145.152420,193.805374 146.655060,193.805374 147.735596,193.805374 
	C147.735596,189.315598 147.735596,185.125992 147.735596,180.936386 
	C144.910889,185.071915 148.137787,190.982300 142.852646,193.787537 
	C142.852646,193.787537 142.828506,194.014343 142.828506,194.014343 
	C142.828506,194.014343 142.735046,193.760071 143.649780,193.805374 
M207.290390,194.929077 
	C212.803482,192.058273 213.903152,187.710495 209.905258,183.330826 
	C208.011292,180.618256 204.924530,179.591965 202.584305,181.259186 
	C200.693390,182.606339 199.370331,185.738480 199.131363,188.208069 
	C198.653564,193.146118 202.236588,194.604263 207.290390,194.929077 
M222.315735,183.127563 
	C222.315735,183.127563 222.375565,183.167313 223.087677,182.544800 
	C222.788910,182.013489 222.387146,180.988281 222.206985,181.025848 
	C219.941193,181.498260 216.116669,181.650742 215.773834,182.802643 
	C214.868378,185.844925 214.623444,189.660706 215.722427,192.559372 
	C216.808273,195.423355 220.137772,195.627701 223.808563,193.605118 
	C224.542801,193.659882 225.277023,193.714630 226.011261,193.769394 
	C226.011261,187.578934 226.011261,181.388474 226.011261,175.198029 
	C225.693405,175.216248 225.375534,175.234467 225.057678,175.252686 
	C224.120071,177.873764 223.182465,180.494858 222.315735,183.127563 
M131.782425,182.417404 
	C131.192200,182.291534 130.601974,182.165680 129.896393,181.294052 
	C127.754173,179.361984 125.725456,178.791443 123.254890,181.968338 
	C122.511078,184.206406 121.171112,186.440613 121.156639,188.683380 
	C121.132042,192.493469 123.566803,194.848572 127.456505,194.764862 
	C131.324966,194.681595 133.517776,192.278549 133.493408,188.441681 
	C133.481842,186.616638 132.562927,184.797363 131.782425,182.417404 
M68.550896,177.370178 
	C65.204514,176.910706 61.858131,176.451218 58.182152,175.946487 
	C58.182152,182.492065 58.182152,188.202789 58.182152,194.510559 
	C61.172268,194.282837 64.077469,194.061584 67.672714,193.791626 
	C73.963181,189.519852 74.520821,182.949295 68.550896,177.370178 
M79.063187,194.201141 
	C81.520920,194.201141 83.978661,194.201141 86.436394,194.201141 
	C86.420555,193.731216 86.404709,193.261307 86.388863,192.791382 
	C83.987564,192.791382 81.586266,192.791382 79.063782,192.025345 
	C78.693176,190.851852 78.322571,189.678360 77.803589,188.035034 
	C81.194916,188.035034 83.956032,188.035034 86.717148,188.035034 
	C87.093651,187.636093 87.470161,187.237152 87.846664,186.838211 
	C86.430717,185.167801 85.234970,182.442703 83.543968,182.089645 
	C81.351036,181.631775 77.637459,182.292511 76.578400,183.840210 
	C74.309814,187.155487 74.652206,191.074982 79.063187,194.201141 
M267.163727,137.007446 
	C259.396912,136.873581 254.663818,142.006836 255.908325,149.214447 
	C256.845062,154.639481 261.982880,158.539124 266.840332,157.089493 
	C268.229126,156.841660 269.617920,156.593826 271.699738,156.069031 
	C276.658142,153.546585 278.555145,149.013275 276.997314,143.409286 
	C275.801331,139.106903 272.277740,136.657928 267.163727,137.007446 
M194.672760,192.760590 
	C195.132446,191.197220 196.315140,189.398712 195.899292,188.120102 
	C195.067825,185.563782 193.908691,182.118561 191.888062,181.174973 
	C188.763199,179.715759 184.948151,180.332031 183.365677,185.528000 
	C182.332916,189.018356 182.506973,192.654114 186.034103,194.127792 
	C188.302231,195.075409 191.716110,196.303482 194.672760,192.760590 
M227.148087,156.049393 
	C222.900101,156.473694 220.321350,155.248810 221.658417,149.666855 
	C219.860092,150.522751 217.880890,151.394608 217.875198,152.279129 
	C217.865326,153.814774 218.736740,156.312820 219.842850,156.705597 
	C222.375381,157.604843 225.272491,157.477356 228.721863,157.798965 
	C231.925568,156.739838 234.345718,155.103348 234.334030,151.209015 
	C234.322205,147.271561 231.445007,146.288071 228.562408,145.464645 
	C224.642136,144.344788 221.037766,143.115112 221.863495,137.660629 
	C217.175507,140.785904 217.288208,145.126770 221.743469,147.390625 
	C223.636658,148.352600 225.813354,148.740128 227.770721,149.595703 
	C231.779922,151.348175 231.819595,153.242294 227.148087,156.049393 
M140.214523,136.800858 
	C137.808136,136.800858 135.401764,136.800858 132.995377,136.800858 
	C137.241959,140.811981 137.321228,153.324829 133.032242,157.335800 
	C136.653671,157.335800 140.089981,157.335800 144.152084,157.335800 
	C139.783295,154.372879 138.938782,145.024658 142.724899,139.667831 
	C147.234863,136.920319 145.242554,142.057129 147.829422,144.062271 
	C148.651001,141.706848 149.262604,139.953430 149.874191,138.200012 
	C147.914246,137.711716 145.975662,137.013489 143.986618,136.811081 
	C142.723007,136.682526 141.384430,137.290802 140.214523,136.800858 
M89.302979,138.770294 
	C88.146194,135.381226 86.606491,135.266678 81.842354,138.215271 
	C86.283684,140.815689 86.298187,153.671753 81.601669,157.176270 
	C85.417389,157.176270 88.959152,157.176270 93.465477,157.176270 
	C88.387390,154.312790 87.495132,144.471283 91.709129,139.536148 
	C93.974106,139.822479 96.939148,139.317825 98.351326,140.567688 
	C100.912323,142.834335 99.015984,154.686859 96.060455,157.286728 
	C99.849983,157.286728 103.391174,157.286728 106.029167,157.286728 
	C105.239838,154.908890 104.349373,152.993835 104.010345,150.985687 
	C103.681992,149.040756 104.379669,146.855545 103.806068,145.034332 
	C102.877228,142.085236 102.000671,138.287338 99.786156,136.776184 
	C96.686996,134.661362 92.730553,135.704895 89.302979,138.770294 
M61.276367,136.897614 
	C58.831570,136.897614 56.386768,136.897614 53.941971,136.897614 
	C53.695850,137.369949 53.449730,137.842285 53.203613,138.314621 
	C59.748604,139.784103 56.578651,144.424728 56.987957,147.749557 
	C57.411491,151.189941 58.249409,155.120438 53.130306,157.373383 
	C57.723701,157.373383 61.223732,157.373383 64.478180,157.373383 
	C63.375660,155.574860 61.675961,154.036697 61.581490,152.405548 
	C61.343494,148.296341 61.829273,144.145203 62.766872,139.640778 
	C65.377403,139.817810 68.641121,139.084717 70.448006,140.381500 
	C73.280655,142.414459 71.320267,154.799973 68.124031,157.259430 
	C71.962067,157.259430 75.521919,157.259430 78.084251,157.259430 
	C77.310501,154.985199 76.325478,153.053818 76.047600,151.025558 
	C75.711868,148.574966 76.073212,146.037872 75.960342,143.546036 
	C75.666908,137.067856 70.802979,134.172714 64.821304,136.770065 
	C63.680210,137.265533 62.376053,137.385468 61.276367,136.897614 
M119.400803,137.025742 
	C117.919395,137.219650 116.437981,137.413559 114.295433,137.903778 
	C108.259056,141.879791 109.128120,150.674744 112.000542,154.284302 
	C115.162338,158.257492 120.665321,159.208664 124.826752,156.380142 
	C115.647751,154.344513 114.906738,153.616119 115.123856,146.321457 
	C118.028656,146.321457 121.000908,146.594482 123.889626,146.221161 
	C125.681625,145.989532 127.346893,144.777374 129.069046,144.005325 
	C127.568153,141.645172 126.312027,139.056473 124.435738,137.046783 
	C123.764267,136.327545 121.594223,137.007416 119.400803,137.025742 
M194.045349,78.555443 
	C195.069366,74.549530 196.562439,70.599045 197.043442,66.528954 
	C201.016602,32.911240 175.746979,7.780768 148.402145,4.365719 
	C108.852654,-0.573546 75.877724,39.871056 89.569992,77.397919 
	C97.541679,99.246201 117.737854,114.423660 139.504349,114.923683 
	C163.927017,115.484726 184.364746,102.089714 194.045349,78.555443 
M167.029373,132.116867 
	C167.107010,137.771515 167.468704,143.442749 167.139496,149.073624 
	C166.980759,151.788483 165.520920,154.427292 164.590683,157.283417 
	C167.500565,157.283417 171.706665,157.283417 175.912750,157.283417 
	C169.654434,154.451721 172.693680,149.272720 171.982941,143.354446 
	C174.595825,145.316040 176.360550,146.238480 177.562881,147.642502 
	C179.168762,149.517792 180.207138,151.868027 181.723938,153.833115 
	C184.361069,157.249588 187.749542,158.596313 191.560715,157.400818 
	C187.891998,153.025116 184.292206,148.731628 180.644287,144.380753 
	C182.964706,142.770401 184.744553,141.862686 186.101715,140.525848 
	C189.015701,137.655457 188.805359,133.428238 185.855408,130.803879 
	C182.406784,127.735886 167.513535,126.849663 163.276947,129.521225 
	C164.463760,130.125031 165.608170,130.707245 167.029373,132.116867 
M10.806746,140.597565 
	C9.627254,146.099442 13.959350,152.841064 6.931445,157.513229 
	C13.315111,157.605103 19.604582,157.720657 25.634792,156.526749 
	C31.148876,155.435013 35.047703,151.562469 35.955814,145.658890 
	C36.823650,140.017136 35.419647,134.914871 30.574036,131.508850 
	C23.191023,126.319260 14.937300,128.534866 6.695550,128.908722 
	C12.775129,130.993713 10.350863,135.860641 10.806746,140.597565 
M210.777267,156.514420 
	C211.601212,155.559555 212.425156,154.604675 212.457870,154.566772 
	C209.085144,154.566772 205.300751,155.440826 202.347595,154.251251 
	C200.462860,153.492081 199.808517,149.678345 198.157242,146.331665 
	C201.454300,146.331665 203.087006,146.337997 204.719635,146.329971 
	C206.545456,146.320999 208.372391,146.249924 210.196732,146.293777 
	C213.211990,146.366257 213.908722,144.886078 213.270905,142.168335 
	C212.398560,138.451096 210.064789,136.508011 206.375031,136.066956 
	C201.460632,135.479507 197.192749,137.739258 195.401764,141.990814 
	C193.527039,146.441132 193.699432,150.801224 196.943771,154.557114 
	C200.606705,158.797562 205.226562,158.843414 210.777267,156.514420 
M248.851013,136.201263 
	C247.595886,136.201263 246.340744,136.201263 245.128113,136.201263 
	C244.951859,134.102310 244.811691,132.432877 244.623489,130.191452 
	C242.021454,133.070633 239.949478,135.363312 238.656082,136.794464 
	C239.569122,139.064026 240.599670,140.573212 240.727173,142.155167 
	C241.019348,145.780670 240.428879,149.523468 241.082596,153.054672 
	C241.423233,154.894775 243.352707,157.193176 245.090637,157.815628 
	C246.916519,158.469604 249.371078,157.368256 251.550919,157.033981 
	C251.781845,156.336411 252.012787,155.638840 252.243713,154.941284 
	C245.487274,157.597290 244.795029,154.231781 245.038300,149.624359 
	C245.228195,146.027847 245.076340,142.413315 245.076340,138.646500 
	C246.936798,138.486176 248.397125,138.360352 249.857452,138.234512 
	C249.797501,137.571472 249.737564,136.908447 248.851013,136.201263 
M42.919453,157.794327 
	C45.595909,157.794327 48.272366,157.794327 50.392075,157.794327 
	C45.429752,150.771072 49.531437,142.840546 47.196213,135.709137 
	C44.662212,136.300934 42.366661,136.837036 39.650459,137.471375 
	C44.588703,141.140259 44.641029,152.742126 40.088451,157.469147 
	C40.846539,157.594101 41.449490,157.693481 42.919453,157.794327 
M179.668701,178.291321 
	C180.393158,178.094131 181.117615,177.896957 181.842072,177.699768 
	C181.823196,177.401199 181.804321,177.102646 181.785446,176.804077 
	C178.539474,176.804077 175.293488,176.804077 172.221008,176.804077 
	C172.221008,182.776871 172.221008,188.573502 172.221008,194.370132 
	C172.698425,194.407928 173.175858,194.445724 173.653275,194.483521 
	C173.832230,192.033234 174.011185,189.582962 174.184433,187.210892 
	C176.711105,186.884872 178.949722,186.596024 181.188324,186.307175 
	C181.163376,185.915802 181.138412,185.524429 181.113464,185.133057 
	C178.795517,184.892838 176.477554,184.652634 174.177948,184.414322 
	C174.177948,182.287064 174.177948,180.494888 174.177948,178.294891 
	C175.859039,178.294891 177.336334,178.294891 179.668701,178.291321 
M110.910370,192.450607 
	C107.925163,193.132416 105.689728,192.583145 104.980499,189.114014 
	C103.768547,183.185822 107.930008,182.620224 112.260742,181.990967 
	C108.725151,180.197418 105.634338,179.869873 103.432152,183.550934 
	C101.334221,187.057755 102.453400,192.806656 105.678848,194.047699 
	C107.719185,194.832748 110.549118,196.393539 110.910370,192.450607 
M92.828514,180.701050 
	C92.656593,178.777176 92.484673,176.853317 92.312744,174.929443 
	C91.835693,174.971024 91.358643,175.012619 90.881592,175.054199 
	C90.881592,181.515778 90.881592,187.977356 90.881592,194.438919 
	C91.536835,194.459290 92.192078,194.479645 92.847321,194.500000 
	C92.847321,190.215240 92.847321,185.930466 92.828514,180.701050 
M115.099319,184.729446 
	C115.099319,187.986313 115.099319,191.243195 115.099319,194.500061 
	C115.766335,194.495010 116.433357,194.489944 117.100372,194.484894 
	C117.100372,189.990112 117.100372,185.495346 117.100372,181.000580 
	C116.726303,180.913528 116.352242,180.826492 115.978172,180.739456 
	C115.679764,181.764587 115.381355,182.789719 115.099319,184.729446 
M139.106491,185.391785 
	C138.900024,183.880768 138.693558,182.369751 138.487076,180.858719 
	C135.800537,188.768143 136.588654,192.584885 140.054138,193.711304 
	C139.740524,191.268661 139.420609,188.777084 139.106491,185.391785 
M45.533695,130.675049 
	C46.361813,129.353195 47.285187,128.071884 47.888218,126.654274 
	C47.957588,126.491188 46.148869,125.005714 45.374630,125.132576 
	C44.272831,125.313095 43.322666,126.419128 42.307724,127.129768 
	C43.132938,128.295837 43.958153,129.461914 45.533695,130.675049 
M96.861168,182.771317 
	C96.861168,186.566986 96.861168,190.362671 96.861168,194.158340 
	C97.476097,194.167496 98.091034,194.176651 98.705963,194.185806 
	C98.705963,189.970581 98.705963,185.755356 98.705963,181.540131 
	C98.114944,181.637207 97.523933,181.734299 96.861168,182.771317 
z"/>
<path fill="#121212" opacity="1.000000" stroke="none" 
	d="
M193.944153,78.932632 
	C184.364746,102.089714 163.927017,115.484726 139.504349,114.923683 
	C117.737854,114.423660 97.541679,99.246201 89.569992,77.397919 
	C75.877724,39.871056 108.852654,-0.573546 148.402145,4.365719 
	C175.746979,7.780768 201.016602,32.911240 197.043442,66.528954 
	C196.562439,70.599045 195.069366,74.549530 193.944153,78.932632 
M138.375046,105.288811 
	C138.375046,107.076500 138.375046,108.864182 138.375046,110.653183 
	C142.287537,110.653183 145.672714,110.653183 149.388977,110.653183 
	C149.388977,100.276497 149.388977,90.321037 149.388977,80.199631 
	C151.308273,80.045532 152.904602,79.917366 154.693512,79.773743 
	C154.693512,77.302696 154.693512,75.051186 154.693512,73.006073 
	C152.233704,71.386986 147.367035,74.623734 147.618912,68.853790 
	C148.112320,57.551250 148.022247,46.189728 149.215286,34.963318 
	C149.979294,27.774122 151.946640,20.359385 160.364334,17.602276 
	C164.970688,16.093529 166.091476,16.806839 166.101791,21.581991 
	C166.135986,37.406551 166.125122,53.231232 166.102036,69.055824 
	C166.100632,70.011879 165.842148,70.967560 165.679749,72.085449 
	C163.402893,72.312309 161.293198,72.522522 159.038086,72.747215 
	C159.038086,75.154533 159.038086,77.391418 159.038086,79.749260 
	C160.891632,79.932831 162.468063,80.088951 164.456726,80.285904 
	C164.456726,88.780975 164.456726,97.001511 164.456726,105.366570 
	C184.602524,97.977669 198.271912,70.123360 192.713959,48.534264 
	C185.897919,22.058462 161.865570,4.827192 136.396149,8.154243 
	C109.241074,11.701490 89.527390,34.224918 90.341125,60.773354 
	C90.987747,81.869209 107.926582,105.384537 123.770355,106.701263 
	C123.770355,92.237572 123.770355,77.801758 123.770355,63.331959 
	C125.720535,63.120663 127.310616,62.948383 129.901154,62.667709 
	C128.922409,60.411194 128.659241,58.004246 127.344635,57.057983 
	C116.693130,49.390907 114.530533,30.325216 123.436745,20.656897 
	C128.040619,15.659072 134.106873,15.633534 138.536850,20.918472 
	C143.692276,27.068880 144.625671,34.411682 143.531738,42.081619 
	C142.763840,47.465508 141.142288,52.724617 136.239746,55.686527 
	C133.089828,57.589592 132.361832,59.609383 133.322556,62.741261 
	C135.098618,63.017780 136.653564,63.259876 138.377045,63.528214 
	C138.377045,77.354546 138.377045,90.840416 138.375046,105.288811 
M125.568878,24.083256 
	C120.540863,31.875984 120.552948,40.129925 124.211746,48.239204 
	C125.269669,50.583942 128.349350,53.311775 130.634262,53.436096 
	C132.832199,53.555691 136.140213,51.031948 137.324127,48.801205 
	C141.369965,41.177982 141.272491,33.144596 137.165344,25.471399 
	C134.256668,20.037268 130.965805,19.580256 125.568878,24.083256 
M156.406525,25.033993 
	C156.325638,25.179203 156.234161,25.319578 156.165405,25.470312 
	C150.077881,38.812935 151.644440,53.079483 151.286987,67.095833 
	C151.271133,67.717529 153.080368,68.385773 154.715988,69.488388 
	C154.875153,66.101784 154.981522,63.838612 155.090256,61.525127 
	C159.804810,60.426682 158.369202,63.812153 158.848328,65.874252 
	C159.089645,66.912849 159.955826,67.806252 160.539429,68.765320 
	C161.122833,67.809921 162.194504,66.863548 162.212341,65.897713 
	C162.353546,58.254398 162.294815,50.607372 162.295959,42.961491 
	C162.297028,35.744003 162.296173,28.526516 162.296173,20.164112 
	C159.874847,22.066629 158.373154,23.246567 156.406525,25.033993 
M132.006470,84.979286 
	C130.417419,86.109131 127.581291,87.117088 127.456871,88.390083 
	C126.939453,93.684036 127.239342,99.057884 127.239342,104.826530 
	C130.211685,103.864403 132.484436,103.128723 134.872116,102.355850 
	C134.872116,97.015289 134.960266,92.068687 134.783218,87.131592 
	C134.754532,86.331680 133.548874,85.573967 132.006470,84.979286 
M134.886581,76.178711 
	C134.886581,73.226768 134.886581,70.274834 134.886581,67.216263 
	C132.108826,67.216263 129.878143,67.216263 127.608322,67.216263 
	C127.608322,72.386581 127.608322,77.232758 127.608322,82.724937 
	C130.614960,80.855301 135.203796,82.356331 134.886581,76.178711 
M160.591705,91.008354 
	C160.591705,88.588959 160.591705,86.169563 160.591705,83.691734 
	C157.706039,83.691734 155.490051,83.691734 153.245758,83.691734 
	C153.245758,87.734848 153.245758,91.442261 153.245758,96.353439 
	C156.163071,94.562737 158.370789,93.207603 160.591705,91.008354 
M154.946274,109.403175 
	C161.193863,107.962738 162.241898,105.332314 159.628372,97.651848 
	C152.571121,99.317535 150.902878,102.963547 154.946274,109.403175 
z"/>
<path fill="#1C1C1C" opacity="1.000000" stroke="none" 
	d="
M166.890976,131.703156 
	C165.608170,130.707245 164.463760,130.125031 163.276947,129.521225 
	C167.513535,126.849663 182.406784,127.735886 185.855408,130.803879 
	C188.805359,133.428238 189.015701,137.655457 186.101715,140.525848 
	C184.744553,141.862686 182.964706,142.770401 180.644287,144.380753 
	C184.292206,148.731628 187.891998,153.025116 191.560715,157.400818 
	C187.749542,158.596313 184.361069,157.249588 181.723938,153.833115 
	C180.207138,151.868027 179.168762,149.517792 177.562881,147.642502 
	C176.360550,146.238480 174.595825,145.316040 171.982941,143.354446 
	C172.693680,149.272720 169.654434,154.451721 175.912750,157.283417 
	C171.706665,157.283417 167.500565,157.283417 164.590683,157.283417 
	C165.520920,154.427292 166.980759,151.788483 167.139496,149.073624 
	C167.468704,143.442749 167.107010,137.771515 166.890976,131.703156 
M172.031830,135.642776 
	C172.031830,137.897491 172.031830,140.152191 172.031830,142.968414 
	C174.991760,142.610733 177.858902,143.090622 179.322357,141.877365 
	C181.133957,140.375458 182.816940,137.415771 182.701843,135.181351 
	C182.502274,131.306870 179.153656,130.104172 175.477859,130.057449 
	C172.013550,130.013443 171.973465,132.298004 172.031830,135.642776 
z"/>
<path fill="#151515" opacity="1.000000" stroke="none" 
	d="
M10.806788,140.121628 
	C10.350863,135.860641 12.775129,130.993713 6.695550,128.908722 
	C14.937300,128.534866 23.191023,126.319260 30.574036,131.508850 
	C35.419647,134.914871 36.823650,140.017136 35.955814,145.658890 
	C35.047703,151.562469 31.148876,155.435013 25.634792,156.526749 
	C19.604582,157.720657 13.315111,157.605103 6.931445,157.513229 
	C13.959350,152.841064 9.627254,146.099442 10.806788,140.121628 
M15.185997,147.322113 
	C15.796346,150.258194 13.320829,154.949951 18.221090,155.460480 
	C21.267998,155.777924 25.159952,154.432190 27.610886,152.491821 
	C31.175209,149.669998 31.264896,140.172287 28.694963,135.654510 
	C25.965313,130.855957 22.484720,129.498917 15.185513,130.603165 
	C15.185513,135.811676 15.185513,141.086990 15.185997,147.322113 
z"/>
<path fill="#191919" opacity="1.000000" stroke="none" 
	d="
M210.440781,156.728760 
	C205.226562,158.843414 200.606705,158.797562 196.943771,154.557114 
	C193.699432,150.801224 193.527039,146.441132 195.401764,141.990814 
	C197.192749,137.739258 201.460632,135.479507 206.375031,136.066956 
	C210.064789,136.508011 212.398560,138.451096 213.270905,142.168335 
	C213.908722,144.886078 213.211990,146.366257 210.196732,146.293777 
	C208.372391,146.249924 206.545456,146.320999 204.719635,146.329971 
	C203.087006,146.337997 201.454300,146.331665 198.157242,146.331665 
	C199.808517,149.678345 200.462860,153.492081 202.347595,154.251251 
	C205.300751,155.440826 209.085144,154.566772 212.457870,154.566772 
	C212.425156,154.604675 211.601212,155.559555 210.440781,156.728760 
M202.219543,138.267761 
	C201.031906,140.029907 199.844269,141.792068 198.656631,143.554214 
	C198.948196,143.994553 199.239761,144.434891 199.531326,144.875214 
	C202.529816,144.521652 205.545563,144.253387 208.494675,143.656113 
	C208.736359,143.607162 209.013138,140.609192 208.428619,140.205750 
	C206.857956,139.121674 204.829041,138.701508 202.219543,138.267761 
z"/>
<path fill="#F5F5F5" opacity="1.000000" stroke="none" 
	d="
M271.006714,156.345978 
	C269.617920,156.593826 268.229126,156.841660 266.335358,156.723511 
	C261.157379,153.913040 259.876373,150.199112 261.082031,143.257080 
	C261.776093,139.260818 264.134094,137.644882 268.344147,137.962860 
	C273.390717,141.885330 274.242188,147.864380 271.059082,154.040298 
	C270.742462,154.654663 271.010193,155.570221 271.006714,156.345978 
z"/>
<path fill="#151515" opacity="1.000000" stroke="none" 
	d="
M120.108154,137.048706 
	C121.594223,137.007416 123.764267,136.327545 124.435738,137.046783 
	C126.312027,139.056473 127.568153,141.645172 129.069046,144.005325 
	C127.346893,144.777374 125.681625,145.989532 123.889626,146.221161 
	C121.000908,146.594482 118.028656,146.321457 115.123856,146.321457 
	C114.906738,153.616119 115.647751,154.344513 124.826752,156.380142 
	C120.665321,159.208664 115.162338,158.257492 112.000542,154.284302 
	C109.128120,150.674744 108.259056,141.879791 114.994934,137.951263 
	C115.426643,140.111694 115.158852,142.224609 114.845947,144.693481 
	C117.027893,144.693481 118.851173,144.906281 120.593971,144.623337 
	C121.890427,144.412872 124.158638,143.484726 124.125168,143.007217 
	C124.012024,141.392746 123.214645,139.750412 122.370514,138.297897 
	C121.999222,137.659012 120.885040,137.451874 120.108154,137.048706 
z"/>
<path fill="#121212" opacity="1.000000" stroke="none" 
	d="
M249.264313,136.223328 
	C249.737564,136.908447 249.797501,137.571472 249.857452,138.234512 
	C248.397125,138.360352 246.936798,138.486176 245.076340,138.646500 
	C245.076340,142.413315 245.228195,146.027847 245.038300,149.624359 
	C244.795029,154.231781 245.487274,157.597290 252.243713,154.941284 
	C252.012787,155.638840 251.781845,156.336411 251.550919,157.033981 
	C249.371078,157.368256 246.916519,158.469604 245.090637,157.815628 
	C243.352707,157.193176 241.423233,154.894775 241.082596,153.054672 
	C240.428879,149.523468 241.019348,145.780670 240.727173,142.155167 
	C240.599670,140.573212 239.569122,139.064026 238.656082,136.794464 
	C239.949478,135.363312 242.021454,133.070633 244.623489,130.191452 
	C244.811691,132.432877 244.951859,134.102310 245.128113,136.201263 
	C246.340744,136.201263 247.595886,136.201263 249.264313,136.223328 
z"/>
<path fill="#1D1D1D" opacity="1.000000" stroke="none" 
	d="
M61.147125,137.678665 
	C62.376053,137.385468 63.680210,137.265533 64.821304,136.770065 
	C70.802979,134.172714 75.666908,137.067856 75.960342,143.546036 
	C76.073212,146.037872 75.711868,148.574966 76.047600,151.025558 
	C76.325478,153.053818 77.310501,154.985199 78.084251,157.259430 
	C75.521919,157.259430 71.962067,157.259430 68.124031,157.259430 
	C71.320267,154.799973 73.280655,142.414459 70.448006,140.381500 
	C68.641121,139.084717 65.377403,139.817810 62.132538,139.619659 
	C61.381176,138.958572 61.264153,138.318619 61.147125,137.678665 
z"/>
<path fill="#252525" opacity="1.000000" stroke="none" 
	d="
M90.058784,139.025558 
	C92.730553,135.704895 96.686996,134.661362 99.786156,136.776184 
	C102.000671,138.287338 102.877228,142.085236 103.806068,145.034332 
	C104.379669,146.855545 103.681992,149.040756 104.010345,150.985687 
	C104.349373,152.993835 105.239838,154.908890 106.029167,157.286728 
	C103.391174,157.286728 99.849983,157.286728 96.060455,157.286728 
	C99.015984,154.686859 100.912323,142.834335 98.351326,140.567688 
	C96.939148,139.317825 93.974106,139.822479 91.214920,139.497498 
	C90.526138,139.274597 90.305504,139.130173 90.058784,139.025558 
z"/>
<path fill="#272727" opacity="1.000000" stroke="none" 
	d="
M42.485947,157.793594 
	C41.449490,157.693481 40.846539,157.594101 40.088451,157.469147 
	C44.641029,152.742126 44.588703,141.140259 39.650459,137.471375 
	C42.366661,136.837036 44.662212,136.300934 47.196213,135.709137 
	C49.531437,142.840546 45.429752,150.771072 50.392075,157.794327 
	C48.272366,157.794327 45.595909,157.794327 42.485947,157.793594 
z"/>
<path fill="#141414" opacity="1.000000" stroke="none" 
	d="
M141.980530,139.900711 
	C138.938782,145.024658 139.783295,154.372879 144.152084,157.335800 
	C140.089981,157.335800 136.653671,157.335800 133.032242,157.335800 
	C137.321228,153.324829 137.241959,140.811981 132.995377,136.800858 
	C135.401764,136.800858 137.808136,136.800858 140.186462,137.508957 
	C140.765778,138.778275 141.373154,139.339493 141.980530,139.900711 
z"/>
<path fill="#1C1C1C" opacity="1.000000" stroke="none" 
	d="
M61.211746,137.288147 
	C61.264153,138.318619 61.381176,138.958572 61.761574,139.804703 
	C61.829273,144.145203 61.343494,148.296341 61.581490,152.405548 
	C61.675961,154.036697 63.375660,155.574860 64.478180,157.373383 
	C61.223732,157.373383 57.723701,157.373383 53.130306,157.373383 
	C58.249409,155.120438 57.411491,151.189941 56.987957,147.749557 
	C56.578651,144.424728 59.748604,139.784103 53.203613,138.314621 
	C53.449730,137.842285 53.695850,137.369949 53.941971,136.897614 
	C56.386768,136.897614 58.831570,136.897614 61.211746,137.288147 
z"/>
<path fill="#151515" opacity="1.000000" stroke="none" 
	d="
M89.680878,138.897919 
	C90.305504,139.130173 90.526138,139.274597 90.837982,139.619080 
	C87.495132,144.471283 88.387390,154.312790 93.465477,157.176270 
	C88.959152,157.176270 85.417389,157.176270 81.601669,157.176270 
	C86.298187,153.671753 86.283684,140.815689 81.842354,138.215271 
	C86.606491,135.266678 88.146194,135.381226 89.680878,138.897919 
z"/>
<path fill="#151515" opacity="1.000000" stroke="none" 
	d="
M228.013123,156.131485 
	C231.819595,153.242294 231.779922,151.348175 227.770721,149.595703 
	C225.813354,148.740128 223.636658,148.352600 221.743469,147.390625 
	C217.288208,145.126770 217.175507,140.785904 221.863495,137.660629 
	C221.037766,143.115112 224.642136,144.344788 228.562408,145.464645 
	C231.445007,146.288071 234.322205,147.271561 234.334030,151.209015 
	C234.345718,155.103348 231.925568,156.739838 228.376099,157.510315 
	C228.024582,156.858276 228.018845,156.494873 228.013123,156.131485 
z"/>
<path fill="#EDEDED" opacity="1.000000" stroke="none" 
	d="
M194.016510,193.185486 
	C191.716110,196.303482 188.302231,195.075409 186.034103,194.127792 
	C182.506973,192.654114 182.332916,189.018356 184.058502,185.305786 
	C185.548126,184.586868 186.353226,184.102905 187.140335,183.591293 
	C190.712296,181.269470 193.752289,182.723404 193.812958,187.027039 
	C193.836502,188.698044 192.824982,190.367371 192.485062,192.077240 
	C192.433823,192.334991 193.478668,192.810638 194.016510,193.185486 
z"/>
<path fill="#151515" opacity="1.000000" stroke="none" 
	d="
M268.005585,137.833252 
	C264.134094,137.644882 261.776093,139.260818 261.082031,143.257080 
	C259.876373,150.199112 261.157379,153.913040 266.001862,156.681610 
	C261.982880,158.539124 256.845062,154.639481 255.908325,149.214447 
	C254.663818,142.006836 259.396912,136.873581 267.584808,137.251907 
	C268.005890,137.496368 268.005585,137.833252 268.005585,137.833252 
z"/>
<path fill="#272727" opacity="1.000000" stroke="none" 
	d="
M179.241165,178.293106 
	C177.336334,178.294891 175.859039,178.294891 174.177948,178.294891 
	C174.177948,180.494888 174.177948,182.287064 174.177948,184.414322 
	C176.477554,184.652634 178.795517,184.892838 181.113464,185.133057 
	C181.138412,185.524429 181.163376,185.915802 181.188324,186.307175 
	C178.949722,186.596024 176.711105,186.884872 174.184433,187.210892 
	C174.011185,189.582962 173.832230,192.033234 173.653275,194.483521 
	C173.175858,194.445724 172.698425,194.407928 172.221008,194.370132 
	C172.221008,188.573502 172.221008,182.776871 172.221008,176.804077 
	C175.293488,176.804077 178.539474,176.804077 181.785446,176.804077 
	C181.804321,177.102646 181.823196,177.401199 181.842072,177.699768 
	C181.117615,177.896957 180.393158,178.094131 179.241165,178.293106 
z"/>
<path fill="#303030" opacity="1.000000" stroke="none" 
	d="
M78.440140,193.813995 
	C74.652206,191.074982 74.309814,187.155487 76.578400,183.840210 
	C77.637459,182.292511 81.351036,181.631775 83.543968,182.089645 
	C85.234970,182.442703 86.430717,185.167801 87.846664,186.838211 
	C87.470161,187.237152 87.093651,187.636093 86.717148,188.035034 
	C83.956032,188.035034 81.194916,188.035034 77.803589,188.035034 
	C78.322571,189.678360 78.693176,190.851852 78.927338,192.656128 
	C78.673988,193.462616 78.557068,193.638306 78.440140,193.813995 
z"/>
<path fill="#0F0F0F" opacity="1.000000" stroke="none" 
	d="
M268.344147,137.962860 
	C268.005585,137.833252 268.005890,137.496368 268.005524,137.327942 
	C272.277740,136.657928 275.801331,139.106903 276.997314,143.409286 
	C278.555145,149.013275 276.658142,153.546585 271.353210,156.207504 
	C271.010193,155.570221 270.742462,154.654663 271.059082,154.040298 
	C274.242188,147.864380 273.390717,141.885330 268.344147,137.962860 
z"/>
<path fill="#EFEFEF" opacity="1.000000" stroke="none" 
	d="
M123.993965,181.786118 
	C125.725456,178.791443 127.754173,179.361984 129.944000,181.989883 
	C130.284103,183.209335 130.576584,183.732956 130.928284,184.668320 
	C131.045090,185.730316 131.131973,186.379517 131.155289,187.031006 
	C131.262680,190.031372 130.907898,193.050110 126.991112,192.714828 
	C122.822128,192.357971 123.253807,188.960999 123.486786,185.988724 
	C123.596954,184.583237 123.821335,183.186707 123.993965,181.786118 
z"/>
<path fill="#141414" opacity="1.000000" stroke="none" 
	d="
M66.982674,193.840332 
	C64.077469,194.061584 61.172268,194.282837 58.182152,194.510559 
	C58.182152,188.202789 58.182152,182.492065 58.182152,175.946487 
	C61.858131,176.451218 65.204514,176.910706 68.649254,177.922913 
	C68.431267,178.684372 68.114914,178.893066 67.408791,179.041183 
	C64.837067,178.657654 62.655117,178.334702 60.311684,177.987854 
	C60.311684,183.303482 60.311684,187.881287 60.311684,192.737244 
	C62.742367,192.472427 64.872002,192.240417 67.005569,192.313782 
	C67.000549,193.026215 66.991615,193.433273 66.982674,193.840332 
z"/>
<path fill="#303030" opacity="1.000000" stroke="none" 
	d="
M111.317459,192.510956 
	C110.549118,196.393539 107.719185,194.832748 105.678848,194.047699 
	C102.453400,192.806656 101.334221,187.057755 103.432152,183.550934 
	C105.634338,179.869873 108.725151,180.197418 112.260742,181.990967 
	C107.930008,182.620224 103.768547,183.185822 104.980499,189.114014 
	C105.689728,192.583145 107.925163,193.132416 111.317459,192.510956 
z"/>
<path fill="#303030" opacity="1.000000" stroke="none" 
	d="
M123.624428,181.877228 
	C123.821335,183.186707 123.596954,184.583237 123.486786,185.988724 
	C123.253807,188.960999 122.822128,192.357971 126.991112,192.714828 
	C130.907898,193.050110 131.262680,190.031372 131.155289,187.031006 
	C131.131973,186.379517 131.045090,185.730316 131.054352,184.394257 
	C131.432495,183.464142 131.743774,183.219803 132.055054,182.975464 
	C132.562927,184.797363 133.481842,186.616638 133.493408,188.441681 
	C133.517776,192.278549 131.324966,194.681595 127.456505,194.764862 
	C123.566803,194.848572 121.132042,192.493469 121.156639,188.683380 
	C121.171112,186.440613 122.511078,184.206406 123.624428,181.877228 
z"/>
<path fill="#E2E2E2" opacity="1.000000" stroke="none" 
	d="
M119.754478,137.037231 
	C120.885040,137.451874 121.999222,137.659012 122.370514,138.297897 
	C123.214645,139.750412 124.012024,141.392746 124.125168,143.007217 
	C124.158638,143.484726 121.890427,144.412872 120.593971,144.623337 
	C118.851173,144.906281 117.027893,144.693481 114.845947,144.693481 
	C115.158852,142.224609 115.426643,140.111694 115.325500,137.803116 
	C116.437981,137.413559 117.919395,137.219650 119.754478,137.037231 
z"/>
<path fill="#3A3A3A" opacity="1.000000" stroke="none" 
	d="
M222.955505,193.731735 
	C220.137772,195.627701 216.808273,195.423355 215.722427,192.559372 
	C214.623444,189.660706 214.868378,185.844925 215.773834,182.802643 
	C216.116669,181.650742 219.941193,181.498260 222.206985,181.025848 
	C222.387146,180.988281 222.788910,182.013489 222.311111,182.677826 
	C216.130753,182.169693 216.582230,185.959183 216.878189,189.265747 
	C217.257996,193.509247 220.044876,193.135696 223.030853,192.312164 
	C223.019897,192.975937 222.987717,193.353836 222.955505,193.731735 
z"/>
<path fill="#1D1D1D" opacity="1.000000" stroke="none" 
	d="
M223.382050,193.668427 
	C222.987717,193.353836 223.019897,192.975937 223.262161,191.980804 
	C223.063110,188.614349 222.653992,185.865158 222.244873,183.115952 
	C223.182465,180.494858 224.120071,177.873764 225.057678,175.252686 
	C225.375534,175.234467 225.693405,175.216248 226.011261,175.198029 
	C226.011261,181.388474 226.011261,187.578934 226.011261,193.769394 
	C225.277023,193.714630 224.542801,193.659882 223.382050,193.668427 
z"/>
<path fill="#F7F7F7" opacity="1.000000" stroke="none" 
	d="
M222.280304,183.121765 
	C222.653992,185.865158 223.063110,188.614349 223.240936,191.694916 
	C220.044876,193.135696 217.257996,193.509247 216.878189,189.265747 
	C216.582230,185.959183 216.130753,182.169693 221.955048,182.989075 
	C222.375565,183.167313 222.315735,183.127563 222.280304,183.121765 
z"/>
<path fill="#525252" opacity="1.000000" stroke="none" 
	d="
M92.837921,181.173370 
	C92.847321,185.930466 92.847321,190.215240 92.847321,194.500000 
	C92.192078,194.479645 91.536835,194.459290 90.881592,194.438919 
	C90.881592,187.977356 90.881592,181.515778 90.881592,175.054199 
	C91.358643,175.012619 91.835693,174.971024 92.312744,174.929443 
	C92.484673,176.853317 92.656593,178.777176 92.837921,181.173370 
z"/>
<path fill="#1D1D1D" opacity="1.000000" stroke="none" 
	d="
M206.498550,194.826630 
	C202.236588,194.604263 198.653564,193.146118 199.131363,188.208069 
	C199.370331,185.738480 200.693390,182.606339 202.584305,181.259186 
	C204.924530,179.591965 208.011292,180.618256 209.644073,183.804398 
	C208.911926,184.217270 208.440964,184.156570 207.820969,183.723389 
	C205.723160,183.700668 202.145538,183.911789 202.101959,184.423691 
	C201.890884,186.903534 202.628662,189.464157 203.172913,192.297760 
	C204.376633,193.341797 205.437592,194.084213 206.498550,194.826630 
z"/>
<path fill="#1D1D1D" opacity="1.000000" stroke="none" 
	d="
M194.344635,192.973038 
	C193.478668,192.810638 192.433823,192.334991 192.485062,192.077240 
	C192.824982,190.367371 193.836502,188.698044 193.812958,187.027039 
	C193.752289,182.723404 190.712296,181.269470 187.140335,183.591293 
	C186.353226,184.102905 185.548126,184.586868 184.348145,185.048691 
	C184.948151,180.332031 188.763199,179.715759 191.888062,181.174973 
	C193.908691,182.118561 195.067825,185.563782 195.899292,188.120102 
	C196.315140,189.398712 195.132446,191.197220 194.344635,192.973038 
z"/>
<path fill="#EDEDED" opacity="1.000000" stroke="none" 
	d="
M207.970016,184.095871 
	C208.440964,184.156570 208.911926,184.217270 209.717194,184.145142 
	C213.903152,187.710495 212.803482,192.058273 206.894470,194.877838 
	C205.437592,194.084213 204.376633,193.341797 203.552979,192.273438 
	C205.067184,192.007553 206.344055,192.067627 207.970016,192.144119 
	C207.970016,189.343689 207.970016,186.719772 207.970016,184.095871 
z"/>
<path fill="#252525" opacity="1.000000" stroke="none" 
	d="
M142.667984,193.911041 
	C148.137787,190.982300 144.910889,185.071915 147.735596,180.936386 
	C147.735596,185.125992 147.735596,189.315598 147.735596,193.805374 
	C146.655060,193.805374 145.152420,193.805374 143.199524,193.831070 
	C142.749268,193.856766 142.667984,193.911041 142.667984,193.911041 
z"/>
<path fill="#272727" opacity="1.000000" stroke="none" 
	d="
M67.327698,193.815979 
	C66.991615,193.433273 67.000549,193.026215 67.262253,192.056091 
	C71.026047,187.121613 71.098381,183.960480 67.798569,179.101776 
	C68.114914,178.893066 68.431267,178.684372 68.881615,178.222107 
	C74.520821,182.949295 73.963181,189.519852 67.327698,193.815979 
z"/>
<path fill="#272727" opacity="1.000000" stroke="none" 
	d="
M227.580597,156.090439 
	C228.018845,156.494873 228.024582,156.858276 228.025940,157.494232 
	C225.272491,157.477356 222.375381,157.604843 219.842850,156.705597 
	C218.736740,156.312820 217.865326,153.814774 217.875198,152.279129 
	C217.880890,151.394608 219.860092,150.522751 221.658417,149.666855 
	C220.321350,155.248810 222.900101,156.473694 227.580597,156.090439 
z"/>
<path fill="#525252" opacity="1.000000" stroke="none" 
	d="
M115.091125,184.272156 
	C115.381355,182.789719 115.679764,181.764587 115.978172,180.739456 
	C116.352242,180.826492 116.726303,180.913528 117.100372,181.000580 
	C117.100372,185.495346 117.100372,189.990112 117.100372,194.484894 
	C116.433357,194.489944 115.766335,194.495010 115.099319,194.500061 
	C115.099319,191.243195 115.099319,187.986313 115.091125,184.272156 
z"/>
<path fill="#1D1D1D" opacity="1.000000" stroke="none" 
	d="
M142.352722,139.784271 
	C141.373154,139.339493 140.765778,138.778275 140.118927,137.892853 
	C141.384430,137.290802 142.723007,136.682526 143.986618,136.811081 
	C145.975662,137.013489 147.914246,137.711716 149.874191,138.200012 
	C149.262604,139.953430 148.651001,141.706848 147.829422,144.062271 
	C145.242554,142.057129 147.234863,136.920319 142.352722,139.784271 
z"/>
<path fill="#252525" opacity="1.000000" stroke="none" 
	d="
M139.103607,185.838654 
	C139.420609,188.777084 139.740524,191.268661 140.054138,193.711304 
	C136.588654,192.584885 135.800537,188.768143 138.487076,180.858719 
	C138.693558,182.369751 138.900024,183.880768 139.103607,185.838654 
z"/>
<path fill="#191919" opacity="1.000000" stroke="none" 
	d="
M45.158531,130.651520 
	C43.958153,129.461914 43.132938,128.295837 42.307724,127.129768 
	C43.322666,126.419128 44.272831,125.313095 45.374630,125.132576 
	C46.148869,125.005714 47.957588,126.491188 47.888218,126.654274 
	C47.285187,128.071884 46.361813,129.353195 45.158531,130.651520 
z"/>
<path fill="#121212" opacity="1.000000" stroke="none" 
	d="
M96.897041,182.301346 
	C97.523933,181.734299 98.114944,181.637207 98.705963,181.540131 
	C98.705963,185.755356 98.705963,189.970581 98.705963,194.185806 
	C98.091034,194.176651 97.476097,194.167496 96.861168,194.158340 
	C96.861168,190.362671 96.861168,186.566986 96.897041,182.301346 
z"/>
<path fill="#303030" opacity="1.000000" stroke="none" 
	d="
M78.987930,193.039154 
	C81.586266,192.791382 83.987564,192.791382 86.388863,192.791382 
	C86.404709,193.261307 86.420555,193.731216 86.436394,194.201141 
	C83.978661,194.201141 81.520920,194.201141 78.751663,194.007568 
	C78.557068,193.638306 78.673988,193.462616 78.987930,193.039154 
z"/>
<path fill="#3A3A3A" opacity="1.000000" stroke="none" 
	d="
M131.918732,182.696442 
	C131.743774,183.219803 131.432495,183.464142 130.995148,183.982513 
	C130.576584,183.732956 130.284103,183.209335 130.001678,182.362762 
	C130.601974,182.165680 131.192200,182.291534 131.918732,182.696442 
z"/>
<path fill="#252525" opacity="1.000000" stroke="none" 
	d="
M142.742157,193.808411 
	C142.735046,193.760071 142.828506,194.014343 142.828506,194.014343 
	C142.828506,194.014343 142.852646,193.787537 142.760315,193.849289 
	C142.667984,193.911041 142.749268,193.856766 142.742157,193.808411 
z"/>
<path fill="#F7F7F7" opacity="1.000000" stroke="none" 
	d="
M138.376038,104.807541 
	C138.377045,90.840416 138.377045,77.354546 138.377045,63.528214 
	C136.653564,63.259876 135.098618,63.017780 133.322556,62.741261 
	C132.361832,59.609383 133.089828,57.589592 136.239746,55.686527 
	C141.142288,52.724617 142.763840,47.465508 143.531738,42.081619 
	C144.625671,34.411682 143.692276,27.068880 138.536850,20.918472 
	C134.106873,15.633534 128.040619,15.659072 123.436745,20.656897 
	C114.530533,30.325216 116.693130,49.390907 127.344635,57.057983 
	C128.659241,58.004246 128.922409,60.411194 129.901154,62.667709 
	C127.310616,62.948383 125.720535,63.120663 123.770355,63.331959 
	C123.770355,77.801758 123.770355,92.237572 123.770355,106.701263 
	C107.926582,105.384537 90.987747,81.869209 90.341125,60.773354 
	C89.527390,34.224918 109.241074,11.701490 136.396149,8.154243 
	C161.865570,4.827192 185.897919,22.058462 192.713959,48.534264 
	C198.271912,70.123360 184.602524,97.977669 164.456726,105.366570 
	C164.456726,97.001511 164.456726,88.780975 164.456726,80.285904 
	C162.468063,80.088951 160.891632,79.932831 159.038086,79.749260 
	C159.038086,77.391418 159.038086,75.154533 159.038086,72.747215 
	C161.293198,72.522522 163.402893,72.312309 165.679749,72.085449 
	C165.842148,70.967560 166.100632,70.011879 166.102036,69.055824 
	C166.125122,53.231232 166.135986,37.406551 166.101791,21.581991 
	C166.091476,16.806839 164.970688,16.093529 160.364334,17.602276 
	C151.946640,20.359385 149.979294,27.774122 149.215286,34.963318 
	C148.022247,46.189728 148.112320,57.551250 147.618912,68.853790 
	C147.367035,74.623734 152.233704,71.386986 154.693512,73.006073 
	C154.693512,75.051186 154.693512,77.302696 154.693512,79.773743 
	C152.904602,79.917366 151.308273,80.045532 149.388977,80.199631 
	C149.388977,90.321037 149.388977,100.276497 149.388977,110.653183 
	C145.672714,110.653183 142.287537,110.653183 138.375046,110.653183 
	C138.375046,108.864182 138.375046,107.076500 138.376038,104.807541 
M103.227119,80.073166 
	C102.118744,75.956825 101.147491,71.795395 99.817993,67.751755 
	C99.421829,66.546829 98.021355,65.672119 97.081039,64.646118 
	C96.685059,65.036011 96.289078,65.425903 95.893097,65.815796 
	C96.417793,80.935173 104.355461,91.506500 117.385292,99.135017 
	C117.577339,97.542763 117.291046,96.027306 116.419983,95.015068 
	C112.248474,90.167473 107.918610,85.456146 103.227119,80.073166 
z"/>
<path fill="#F9F9F9" opacity="1.000000" stroke="none" 
	d="
M125.773544,23.756842 
	C130.965805,19.580256 134.256668,20.037268 137.165344,25.471399 
	C141.272491,33.144596 141.369965,41.177982 137.324127,48.801205 
	C136.140213,51.031948 132.832199,53.555691 130.634262,53.436096 
	C128.349350,53.311775 125.269669,50.583942 124.211746,48.239204 
	C120.552948,40.129925 120.540863,31.875984 125.773544,23.756842 
z"/>
<path fill="#F5F5F5" opacity="1.000000" stroke="none" 
	d="
M156.638992,24.730247 
	C158.373154,23.246567 159.874847,22.066629 162.296173,20.164112 
	C162.296173,28.526516 162.297028,35.744003 162.295959,42.961491 
	C162.294815,50.607372 162.353546,58.254398 162.212341,65.897713 
	C162.194504,66.863548 161.122833,67.809921 160.539429,68.765320 
	C159.955826,67.806252 159.089645,66.912849 158.848328,65.874252 
	C158.369202,63.812153 159.804810,60.426682 155.090256,61.525127 
	C154.981522,63.838612 154.875153,66.101784 154.715988,69.488388 
	C153.080368,68.385773 151.271133,67.717529 151.286987,67.095833 
	C151.644440,53.079483 150.077881,38.812935 156.165405,25.470312 
	C156.234161,25.319578 156.325638,25.179203 156.638992,24.730247 
z"/>
<path fill="#E8E8E8" opacity="1.000000" stroke="none" 
	d="
M132.446869,84.888016 
	C133.548874,85.573967 134.754532,86.331680 134.783218,87.131592 
	C134.960266,92.068687 134.872116,97.015289 134.872116,102.355850 
	C132.484436,103.128723 130.211685,103.864403 127.239342,104.826530 
	C127.239342,99.057884 126.939453,93.684036 127.456871,88.390083 
	C127.581291,87.117088 130.417419,86.109131 132.446869,84.888016 
z"/>
<path fill="#E8E8E8" opacity="1.000000" stroke="none" 
	d="
M134.878098,76.628174 
	C135.203796,82.356331 130.614960,80.855301 127.608322,82.724937 
	C127.608322,77.232758 127.608322,72.386581 127.608322,67.216263 
	C129.878143,67.216263 132.108826,67.216263 134.886581,67.216263 
	C134.886581,70.274834 134.886581,73.226768 134.878098,76.628174 
z"/>
<path fill="#E2E2E2" opacity="1.000000" stroke="none" 
	d="
M160.585114,91.430405 
	C158.370789,93.207603 156.163071,94.562737 153.245758,96.353439 
	C153.245758,91.442261 153.245758,87.734848 153.245758,83.691734 
	C155.490051,83.691734 157.706039,83.691734 160.591705,83.691734 
	C160.591705,86.169563 160.591705,88.588959 160.585114,91.430405 
z"/>
<path fill="#E8E8E8" opacity="1.000000" stroke="none" 
	d="
M154.548157,109.514038 
	C150.902878,102.963547 152.571121,99.317535 159.628372,97.651848 
	C162.241898,105.332314 161.193863,107.962738 154.548157,109.514038 
z"/>
<path fill="#EFEFEF" opacity="1.000000" stroke="none" 
	d="
M172.042938,135.196655 
	C171.973465,132.298004 172.013550,130.013443 175.477859,130.057449 
	C179.153656,130.104172 182.502274,131.306870 182.701843,135.181351 
	C182.816940,137.415771 181.133957,140.375458 179.322357,141.877365 
	C177.858902,143.090622 174.991760,142.610733 172.031830,142.968414 
	C172.031830,140.152191 172.031830,137.897491 172.042938,135.196655 
z"/>
<path fill="#F5F5F5" opacity="1.000000" stroke="none" 
	d="
M15.185755,146.842224 
	C15.185513,141.086990 15.185513,135.811676 15.185513,130.603165 
	C22.484720,129.498917 25.965313,130.855957 28.694963,135.654510 
	C31.264896,140.172287 31.175209,149.669998 27.610886,152.491821 
	C25.159952,154.432190 21.267998,155.777924 18.221090,155.460480 
	C13.320829,154.949951 15.796346,150.258194 15.185755,146.842224 
z"/>
<path fill="#E8E8E8" opacity="1.000000" stroke="none" 
	d="
M202.600800,138.142731 
	C204.829041,138.701508 206.857956,139.121674 208.428619,140.205750 
	C209.013138,140.609192 208.736359,143.607162 208.494675,143.656113 
	C205.545563,144.253387 202.529816,144.521652 199.531326,144.875214 
	C199.239761,144.434891 198.948196,143.994553 198.656631,143.554214 
	C199.844269,141.792068 201.031906,140.029907 202.600800,138.142731 
z"/>
<path fill="#F0F0F0" opacity="1.000000" stroke="none" 
	d="
M67.408798,179.041199 
	C71.098381,183.960480 71.026047,187.121613 67.258324,191.750717 
	C64.872002,192.240417 62.742367,192.472427 60.311684,192.737244 
	C60.311684,187.881287 60.311684,183.303482 60.311684,177.987854 
	C62.655117,178.334702 64.837067,178.657654 67.408798,179.041199 
z"/>
<path fill="#FDFDFD" opacity="1.000000" stroke="none" 
	d="
M207.820969,183.723389 
	C207.970016,186.719772 207.970016,189.343689 207.970016,192.144119 
	C206.344055,192.067627 205.067184,192.007553 203.410248,191.971802 
	C202.628662,189.464157 201.890884,186.903534 202.101959,184.423691 
	C202.145538,183.911789 205.723160,183.700668 207.820969,183.723389 
z"/>
<path fill="#151515" opacity="1.000000" stroke="none" 
	d="
M103.436073,80.384781 
	C107.918610,85.456146 112.248474,90.167473 116.419983,95.015068 
	C117.291046,96.027306 117.577339,97.542763 117.385292,99.135017 
	C104.355461,91.506500 96.417793,80.935173 95.893097,65.815796 
	C96.289078,65.425903 96.685059,65.036011 97.081039,64.646118 
	C98.021355,65.672119 99.421829,66.546829 99.817993,67.751755 
	C101.147491,71.795395 102.118744,75.956825 103.436073,80.384781 
z"/>
</svg>